<svg xmlns="http://www.w3.org/2000/svg" width="162" height="90" viewBox="0 0 162 90">
    <defs>
        <clipPath id="fwyq3wgi3a">
            <rect data-name="사각형 3347" width="141.914" height="90" rx="16" style="fill:#fff"/>
        </clipPath>
        <clipPath id="h3gnbno48b">
            <path data-name="사각형 3346" style="fill:none" d="M0 0h153.732v125.81H0z"/>
        </clipPath>
    </defs>
    <g data-name="일러스트 영역">
        <g data-name="마스크 그룹 140" transform="translate(20.086)" style="clip-path:url(#fwyq3wgi3a)">
            <g data-name="그룹 493">
                <g data-name="그룹 492" style="clip-path:url(#h3gnbno48b)" transform="translate(5.99 2.396)">
                    <path data-name="패스 13875" d="M181.815 144.815c-.688-1.908-15.817-31.75-31.909-39.517 0 0-9.507-6.656-21.174-7.537l-.007-.775-9.49-3.407-8.39 3.952C93.1 102.845 72.2 124.1 72.2 124.1l-7.7-21.121-13.754 3.27s3.026 18.26 4.539 23.438 4.4 12.809 5.089 15.125 4.676 4.361 8.115 4.361 9.9-3.815 9.9-3.815l16.5-12.673 1.511 12.13-.138 4.633 13.066 24.119h11.416l2.07-8.1 2.056 5.786 18.484-4.226.5.683 7.29 1.226s17.193-1.5 25.858-6 5.5-16.216 4.814-18.124M149.037 155.5l.044-.878s.487-15.787 1.231-19.141l9.36 14.1s-5.305 2.985-10.635 5.92" transform="translate(-29.658 -55.058)" style="fill:#fff"/>
                    <path data-name="패스 13876" d="M35.308 88.982a106.96 106.96 0 0 1 10.472-2.505 16.947 16.947 0 0 0-4.552-9.277c-1.207-1.134-2.141-2.445-3.426-3.527-1.246-1.05-2.673-2.031-3.811-3.117a29.828 29.828 0 0 0-8-4.907 3.91 3.91 0 0 0-1.843-.526 1.33 1.33 0 0 0-1.32 1.153 1.605 1.605 0 0 0 .284.821c1.279 2.108 3.926 3.056 5.364 5.062l-5.6-.738c-1.683-.222-3.519-.414-4.965.467a2.181 2.181 0 0 0 2.332 2.793c-.99.252-1.122 1.736-.444 2.493a4.572 4.572 0 0 0 2.778 1.126 1.279 1.279 0 0 0-1.444 1.218 2.136 2.136 0 0 0 1.049 1.782 7.8 7.8 0 0 0 2 .813 15.874 15.874 0 0 1 6.476 3.834 11.354 11.354 0 0 0 3.985 2.826 4.76 4.76 0 0 0 .666.215" transform="translate(-10.397 -38.314)" style="fill:#fff"/>
                    <path data-name="패스 13877" d="M53.3 85.425C51.932 78.345 46.662 72.9 40.977 68.8c-1.537-1.109-3.125-2.148-4.728-3.162-.814-.515-1.629-1.031-2.451-1.533a3.392 3.392 0 0 0-2.474-.671 1.539 1.539 0 0 0-1.386 1.421 3.438 3.438 0 0 0 1.073 2.016 16.1 16.1 0 0 0 2.547 2.229 9.955 9.955 0 0 0 2.1 1.287c.5.2.711-.6.221-.794.066.026-.146-.072-.191-.1a7.281 7.281 0 0 1-.394-.225c-.321-.193-.632-.4-.938-.615a18.349 18.349 0 0 1-2.09-1.687c-.639-.6-2.479-2.393-.718-2.739.887-.175 1.763.543 2.467.981q1.109.691 2.212 1.39a90.556 90.556 0 0 1 4.258 2.857 38.182 38.182 0 0 1 7.391 6.732 21.538 21.538 0 0 1 4.621 9.452c.1.52.9.3.8-.219" transform="translate(-17.499 -37.294)" style="fill:#1d1d1b"/>
                    <path data-name="패스 13931" d="m0 0 3.066.014.152 34.443-3.066-.014z" transform="rotate(-58.456 27.804 8.126)" style="fill:#ffe68b"/>
                    <path data-name="패스 13878" d="m45.347 77.729-1.62 2.614.573-.143-9.97-6.063-15.86-9.645-3.6-2.189.149.564 1.62-2.614-.568.148 9.97 6.063L41.9 76.1l3.6 2.189a.413.413 0 0 0 .419-.711l-9.97-6.063-15.86-9.645-3.6-2.189a.424.424 0 0 0-.568.148L14.3 62.446a.416.416 0 0 0 .149.563l9.97 6.063 15.86 9.645 3.6 2.189a.424.424 0 0 0 .568-.148l1.62-2.614c.28-.452-.438-.867-.718-.415" transform="translate(-8.324 -35.083)" style="fill:#1d1d1b"/>
                    <path data-name="패스 13932" d="m0 0 3.074.014.013 2.975-3.074-.014z" transform="rotate(-58.46 55.875 -7.726)" style="fill:#eb925e"/>
                    <path data-name="패스 13879" d="m79.147 102.73 2.543 1.546a.424.424 0 0 0 .568-.148l1.62-2.614a.416.416 0 0 0-.149-.563l-2.542-1.546a.425.425 0 0 0-.569.147L79 102.167c-.28.453.438.867.718.415l1.62-2.614-.568.148 2.543 1.546-.149-.563-1.62 2.614.568-.148-2.542-1.546a.413.413 0 0 0-.42.711" transform="translate(-46.138 -58.453)" style="fill:#1d1d1b"/>
                    <path data-name="패스 13933" d="m0 0 3.074.014.013 2.975-3.074-.014z" transform="rotate(-58.46 54.39 -6.888)" style="fill:#1d1d1b"/>
                    <path data-name="패스 13880" d="m75.723 100.628 2.542 1.546a.425.425 0 0 0 .569-.147l1.62-2.614a.416.416 0 0 0-.149-.563l-2.543-1.55a.424.424 0 0 0-.568.147l-1.62 2.614c-.28.453.438.867.718.415l1.62-2.614-.568.148 2.543 1.546-.149-.563-1.62 2.614.568-.148-2.543-1.546a.413.413 0 0 0-.419.711" transform="translate(-44.137 -57.216)" style="fill:#1d1d1b"/>
                    <path data-name="패스 13881" d="m8.615 56.655-7.625-2.8 5.969 5.47z" transform="translate(-.578 -31.688)" style="fill:#fff8f8"/>
                    <path data-name="패스 13882" d="m8.147 55.658-6.666-2.445-.96-.352a.415.415 0 0 0-.4.688l5.218 4.782.751.689a.423.423 0 0 0 .652-.084L8.4 56.263c.28-.453-.438-.867-.718-.415L6.021 58.52l.653-.084-5.218-4.781-.756-.688-.4.688L6.967 56.1l.959.352c.5.184.719-.611.221-.794" transform="translate(0 -31.087)" style="fill:#1d1d1b"/>
                    <path data-name="패스 13883" d="M4.595 55.181.989 53.858l2.823 2.587z" transform="translate(-.578 -31.688)" style="fill:#1d1d1b"/>
                    <path data-name="패스 13884" d="M4.128 54.183.976 53.027l-.454-.166a.415.415 0 0 0-.4.688l2.463 2.261.355.326a.424.424 0 0 0 .653-.083l.783-1.264c.28-.453-.438-.867-.718-.415l-.783 1.264.652-.084-2.467-2.262-.355-.326-.4.688 3.152 1.156.454.167a.412.412 0 1 0 .221-.794" transform="translate(0 -31.087)" style="fill:#1d1d1b"/>
                    <path data-name="패스 13885" d="M56.417 92.888a35.282 35.282 0 0 0-9.891-8.941 2.372 2.372 0 0 0-1.922-.476 1.558 1.558 0 0 0-.828 1.881 3.365 3.365 0 0 0 1.4 1.728 16.329 16.329 0 0 1 1.842 1.32c2.474 2.352 2.19 6.078 5.786 7.538" transform="translate(-25.553 -49.069)" style="fill:#fff"/>
                    <path data-name="패스 13886" d="M56.2 92.1a35.645 35.645 0 0 0-8.115-7.835q-.76-.532-1.548-1.023a4.92 4.92 0 0 0-1.743-.8 1.748 1.748 0 0 0-2.02 1.425 2.863 2.863 0 0 0 1.265 2.733 14.854 14.854 0 0 1 2.691 2.159 11.78 11.78 0 0 1 1.347 2.366c.9 1.929 1.862 3.722 3.939 4.6.487.2.911-.5.419-.711a6.431 6.431 0 0 1-3.272-3.51 11.92 11.92 0 0 0-2.563-4.09 26.007 26.007 0 0 1-2.517-1.9 1.744 1.744 0 0 1-.516-1.43.922.922 0 0 1 1.053-.834 3.956 3.956 0 0 1 1.489.706q.713.445 1.4.922a34.239 34.239 0 0 1 2.716 2.087 35.07 35.07 0 0 1 5.246 5.553c.317.419 1.039.009.718-.416" transform="translate(-24.973 -48.489)" style="fill:#1d1d1b"/>
                    <path data-name="패스 13887" d="M27.96 81.57a22.033 22.033 0 0 0-6.289-1.342 19.3 19.3 0 0 0-3.217.038 2.283 2.283 0 0 0-1.928.99 1.81 1.81 0 0 0 .359 1.979 3.366 3.366 0 0 0 2.278.926 34.2 34.2 0 0 1 6.2 1.089 27.275 27.275 0 0 1 6.468 2.884.413.413 0 0 0 .419-.711 28.014 28.014 0 0 0-10.049-3.742 31.717 31.717 0 0 0-2.627-.307c-.793-.063-1.812-.143-2.237-.921-.977-1.786 3.113-1.46 3.945-1.422a21.31 21.31 0 0 1 6.452 1.334c.5.186.718-.609.221-.794" transform="translate(-9.565 -47.175)" style="fill:#1d1d1b"/>
                    <path data-name="패스 13888" d="m48.06 97.084-3.245 4.429a.413.413 0 0 0 .149.563.427.427 0 0 0 .568-.148l3.246-4.428a.413.413 0 0 0-.149-.563.427.427 0 0 0-.568.148" transform="translate(-26.16 -57)" style="fill:#1d1d1b"/>
                    <path data-name="패스 13889" d="M22.55 88.19c-.956.2-2.21.664-2.227 1.822-.022 1.436 1.546 1.878 2.682 2.08a26.681 26.681 0 0 1 8.695 3.162.413.413 0 0 0 .419-.711 27.323 27.323 0 0 0-6.906-2.82q-.894-.228-1.8-.392a4.8 4.8 0 0 1-1.684-.454c-.511-.317-.794-.946-.273-1.39a2.965 2.965 0 0 1 1.32-.5c.523-.11.3-.9-.221-.794" transform="translate(-11.879 -51.881)" style="fill:#1d1d1b"/>
                    <path data-name="패스 13890" d="M28.288 97.061c-1.255-.375-2.995-.094-3.338 1.384-.364 1.569 1.373 2.26 2.539 2.715a18.467 18.467 0 0 1 4.5 2.133c1.086.807 2.014 1.8 3.051 2.66a8.612 8.612 0 0 0 4.021 2.008c.523.092.747-.7.221-.794-3.053-.536-4.772-3.135-7.169-4.8a23.75 23.75 0 0 0-4.732-2.136c-.66-.27-1.854-.71-1.613-1.633.257-.985 1.522-.98 2.3-.748a.412.412 0 0 0 .221-.794" transform="translate(-14.555 -57.018)" style="fill:#1d1d1b"/>
                    <path data-name="패스 13891" d="M226.478 102.327c9.256-.121 18.151 3.091 25.792 8.136a67.136 67.136 0 0 1 10.668 8.87 96.669 96.669 0 0 1 9.87 11.689 142.6 142.6 0 0 1 7.667 12.327 31.329 31.329 0 0 1 4.376 11.847c.462 3.918.274 8.792-3.584 11.039a36.185 36.185 0 0 1-5.93 2.625 63.2 63.2 0 0 1-6.128 1.85 83.838 83.838 0 0 1-16.952 2.46c-.094 0-.189.007-.283.01a.412.412 0 0 0 0 .823 81.742 81.742 0 0 0 14.961-1.92 60.285 60.285 0 0 0 12.374-3.952c1.925-.878 3.747-1.809 4.94-3.616a11.018 11.018 0 0 0 1.611-5.666 26.671 26.671 0 0 0-2.921-12.657c-.973-1.986-2.105-3.891-3.231-5.794-1.286-2.174-2.537-4.365-3.919-6.482a96.988 96.988 0 0 0-9.58-12.34 76.382 76.382 0 0 0-10.637-9.8c-7.415-5.539-16.2-9.476-25.533-10.17a40.681 40.681 0 0 0-3.561-.105.412.412 0 0 0 0 .823" transform="translate(-132.144 -59.718)" style="fill:#1d1d1b"/>
                    <path data-name="패스 13892" d="M161.5 214.914c-.427-5.882-1.157-11.739-1.874-17.591-.776-6.338-1.557-12.676-2.089-19.04-.3-3.6-.521-7.21-.608-10.824a.416.416 0 0 0-.831 0c.154 6.4.723 12.779 1.425 19.138.686 6.21 1.51 12.4 2.213 18.613.366 3.229.7 6.463.933 9.7.038.525.87.529.831 0" transform="translate(-91.238 -98.292)" style="fill:#1d1d1b"/>
                    <path data-name="패스 13893" d="M185.363 42.572c.243.137-.8 6.359-.794 6.943 2.082-.941 4.477-.78 6.763-.66q6 .314 12.015.066a15.135 15.135 0 0 0-.415-4.17c-1.062-4.37 1.936-9.415 5.184-12.285a4.853 4.853 0 0 0 1.563-1.829 3.837 3.837 0 0 0-.3-2.6c-4.03-10.475-15.229-17.794-26.534-17.343l-2.166 5.724c-4.495 5.553-3.344 14.423-.448 20.435a12.424 12.424 0 0 0 5.135 5.722" transform="translate(-103.853 -6.278)" style="fill:#fff"/>
                    <path data-name="패스 13894" d="M183.543 11.92a6.761 6.761 0 0 0-3.187-.407c-5.276.2-10.592.679-15.813-.1-2.886-.431-4.584-2.2-6.878-3.8l2.791-2.942a13.6 13.6 0 0 0 2.6-3.4 13.22 13.22 0 0 0 5.342.81l3.553.112a12.459 12.459 0 0 0 3.249.007c.715-.18 1.283-.593 2.036-.712a15.469 15.469 0 0 1 3.466 0 38.948 38.948 0 0 1 9.423 1.377 12.278 12.278 0 0 1 6.4 4.616 18.165 18.165 0 0 1 3.257 5.749 19.619 19.619 0 0 1 .521 5.326 27.327 27.327 0 0 1-.415 5.491 10.82 10.82 0 0 1-1.3 2.968 19.9 19.9 0 0 1-2.657 3.937 6.785 6.785 0 0 1-4.105 2.247c.032 0 0-7.155 0-7.734 2.1.068 3.7-2.148 3.68-4.229-.022-1.9-.884-4.11-2.94-2.454-.548.442-1.143.988-1.13 1.689a5.619 5.619 0 0 0-1.628-4.7c-3.092-3.581-7.21-4.259-11.692-4.447" transform="translate(-92.157 -.748)" style="fill:#6c6c6b"/>
                    <path data-name="패스 13895" d="M179.808 26.523c-2.113 2.894-2.467 6.93-2.441 10.388.028 3.668.552 7.471 2.52 10.65a11.612 11.612 0 0 0 4.9 4.487l-.206-.355a24.636 24.636 0 0 1-.581 6.228.416.416 0 0 0 .8.219 25.52 25.52 0 0 0 .612-6.447.406.406 0 0 0-.206-.356c-3.562-1.658-5.709-5.263-6.477-8.98a27.733 27.733 0 0 1-.16-10.286 12.226 12.226 0 0 1 1.957-5.132c.314-.43-.407-.841-.718-.416" transform="translate(-103.672 -15.5)" style="fill:#1d1d1b"/>
                    <path data-name="패스 13896" d="M193.142 45.412a1.11 1.11 0 1 1-.8-1.5 1.221 1.221 0 0 1 .8 1.5" transform="translate(-111.623 -25.825)" style="fill:#1d1d1b"/>
                    <path data-name="패스 13897" d="M217.749 44.533a1.11 1.11 0 1 1-.8-1.5 1.221 1.221 0 0 1 .8 1.5" transform="translate(-126.006 -25.308)" style="fill:#1d1d1b"/>
                    <path data-name="패스 13898" d="M204.27 41.535a46.454 46.454 0 0 1 .081 5.253c-.022.53.809.529.831 0a46.454 46.454 0 0 0-.081-5.253c-.038-.526-.869-.529-.831 0" transform="translate(-119.397 -24.204)" style="fill:#1d1d1b"/>
                    <path data-name="패스 13899" d="M197.954 65.739a4.553 4.553 0 0 1-1.5-2.583 14.628 14.628 0 0 1-.331-1.6 19.196 19.196 0 0 1-.1-.715c-.053-.47.5-.4.836-.415 1.406-.075 2.778-.121 4.174-.328l4.42-.657-.511-.287c.314 2.209.1 4.652-1.67 6.238a4.426 4.426 0 0 1-5.322.349c-.445-.3-.861.416-.419.711a5.273 5.273 0 0 0 6.214-.377c2.1-1.771 2.36-4.605 2-7.14-.034-.238-.314-.317-.511-.287-1.755.261-3.509.54-5.267.783a26.418 26.418 0 0 1-2.646.153c-.573.021-1.534-.081-1.947.419-.364.44-.147 1.135-.071 1.642a14.436 14.436 0 0 0 .388 1.866 5.272 5.272 0 0 0 1.841 2.943c.432.313.847-.4.419-.711" transform="translate(-114.081 -34.501)" style="fill:#1d1d1b"/>
                    <path data-name="패스 13900" d="M157.885 17.2c3.5 3.92 8.971 4.171 13.889 3.984 2.6-.1 5.2-.322 7.806-.259a14.933 14.933 0 0 1 6.772 1.449c2.687 1.452 4.121 4.134 4.845 6.988a.42.42 0 0 0 .8 0c.272-.822.917-1.843 1.937-1.435a2.533 2.533 0 0 1 1.341 2.34 5.554 5.554 0 0 1-.626 2.66 1.351 1.351 0 0 1-2.111.657.42.42 0 0 0-.625.356c-.2 3.068-.73 6.1-.988 9.162a76.142 76.142 0 0 0 .23 9c.018.529.849.531.831 0a76.133 76.133 0 0 1-.23-9c.259-3.062.785-6.094.988-9.162l-.625.355a2.061 2.061 0 0 0 2.628-.121 4.84 4.84 0 0 0 1.24-2.662 4.622 4.622 0 0 0-.285-2.932 2.676 2.676 0 0 0-2.116-1.564c-1.277-.078-2.038 1.062-2.389 2.127h.8a11.773 11.773 0 0 0-4.084-6.75 12.7 12.7 0 0 0-6.538-2.192c-5.211-.476-10.464.715-15.663-.023a11.605 11.605 0 0 1-7.241-3.561c-.355-.4-.941.186-.588.582" transform="translate(-92.222 -9.701)" style="fill:#1d1d1b"/>
                    <path data-name="패스 13901" d="M169.953.772a7.913 7.913 0 0 0 2.257.775 28.573 28.573 0 0 0 7.634.522c5.3-.235 10.72-1.116 15.922.345a16.117 16.117 0 0 1 7.321 4.377 11.384 11.384 0 0 1 2.654 5.13 24.684 24.684 0 0 1-.46 12.71 17.009 17.009 0 0 1-2.234 5 4.707 4.707 0 0 1-2.967 2.251c-.173.021-.349.008-.521.041-.285.055-.523.219-.809.272-.525.1-.3.892.221.794.3-.056.556-.229.855-.269.168-.023.337-.021.505-.049a3.575 3.575 0 0 0 .872-.271 5.3 5.3 0 0 0 1.625-1.192 13.256 13.256 0 0 0 2.636-4.51 26.5 26.5 0 0 0 1.478-12.937 15.128 15.128 0 0 0-1.954-5.851 14.519 14.519 0 0 0-5.865-5.083C194.116.32 188.391.658 182.964 1.047a44.281 44.281 0 0 1-8.7.027 16.78 16.78 0 0 1-2.616-.525 7.864 7.864 0 0 1-1.138-.417 1.5 1.5 0 0 1-.133-.07.413.413 0 0 0-.42.711" transform="translate(-99.223 .001)" style="fill:#1d1d1b"/>
                    <path data-name="패스 13902" d="M181.977 10.677c-4.809.644-9.863 1.38-14.53-.366a18.2 18.2 0 0 1-3.814-2.01c-.31-.21-.6.289-.294.5a17.872 17.872 0 0 0 6.922 2.873 27.071 27.071 0 0 0 7.226.122c1.553-.147 3.1-.354 4.644-.561.369-.049.212-.6-.154-.556" transform="translate(-95.397 -4.854)" style="fill:#1d1d1b"/>
                    <path data-name="패스 13903" d="M192.576 85.232s3.658 2.1 9.449.339l-6.185 7.275-3.414.315 1.236-5.35-1.576-2.481" transform="translate(-112.276 -50.147)" style="fill:#1d1d1b"/>
                    <path data-name="패스 13904" d="M193.569 103.383h18.137a.412.412 0 0 0 0-.823h-18.137a.412.412 0 0 0 0 .823" transform="translate(-112.909 -60.342)" style="fill:#1d1d1b"/>
                    <path data-name="패스 13905" d="M140.832 102.992a94.671 94.671 0 0 0-16.123 7.873 89.125 89.125 0 0 0-14.2 10.787 83.688 83.688 0 0 0-6.983 7.363c-.339.4.245.99.588.583a84.914 84.914 0 0 1 12.686-12.243 90.69 90.69 0 0 1 15.043-9.526 94.1 94.1 0 0 1 9.209-4.044c.495-.186.28-.983-.221-.794" transform="translate(-60.453 -60.579)" style="fill:#1d1d1b"/>
                    <path data-name="패스 13906" d="M75.8 144.931q-4.639-11.256-8.642-22.757-1.136-3.264-2.218-6.546a.425.425 0 0 0-.511-.287l-12.313 3.2-1.726.448a.421.421 0 0 0-.29.506q1.105 5.966 2.314 11.912c1.245 6.175 2.451 12.4 4.169 18.468a27.913 27.913 0 0 0 .884 2.7 39.56 39.56 0 0 0 2.456 5.465 9.407 9.407 0 0 0 3.445 3.591 9.246 9.246 0 0 0 4.924 1.1 9.719 9.719 0 0 0 2.881-.753 32.1 32.1 0 0 0 3.65-1.763 91.778 91.778 0 0 0 8.313-5.309q6-4.212 11.685-8.859l.194-.158c.412-.339-.179-.918-.588-.582-3.117 2.564-6.337 5.017-9.607 7.387-2.661 1.929-5.37 3.8-8.181 5.51a29.194 29.194 0 0 1-7.1 3.465 7.787 7.787 0 0 1-7.918-2.607 19.041 19.041 0 0 1-2.6-4.838c-.482-1.17-.962-2.34-1.334-3.55-.772-2.513-1.364-5.083-1.949-7.643-.75-3.28-1.445-6.572-2.119-9.868q-1.395-6.817-2.672-13.657l-.044-.235-.29.506 12.313-3.2 1.726-.449-.511-.287q3.815 11.556 8.276 22.89 1.266 3.216 2.584 6.413c.2.484 1 .272.8-.219" transform="translate(-29.281 -67.854)" style="fill:#1d1d1b"/>
                    <path data-name="패스 13907" d="M279.13 179.889c3.546 4.938 7.079 9.879 10.373 14.986q1.664 2.578 3.292 5.179c.283.449 1 .036.718-.416-3.242-5.151-6.573-10.231-10.1-15.192q-1.774-2.492-3.562-4.973c-.307-.428-1.028-.018-.717.415" transform="translate(-163.11 -105.488)" style="fill:#1d1d1b"/>
                    <path data-name="패스 13908" d="M287.645 194.016c-.294 4.943-.822 9.883-.888 14.837-.02 1.535 0 3.07.031 4.6a.416.416 0 0 0 .831 0c-.054-2.47-.062-4.941.051-7.41.1-2.2.285-4.4.445-6.6q.2-2.713.361-5.429c.032-.529-.8-.527-.831 0" transform="translate(-167.607 -113.918)" style="fill:#1d1d1b"/>
                    <path data-name="패스 13909" d="M288.223 223.327a96.6 96.6 0 0 0-12.92 5.322c-3.553 1.781-6.98 3.789-10.393 5.817-1.941 1.153-3.881 2.308-5.842 3.427a.413.413 0 0 0 .419.711c7-3.992 13.763-8.358 21.2-11.553a96.423 96.423 0 0 1 7.762-2.93c.5-.168.288-.963-.221-.794" transform="translate(-151.31 -131.382)" style="fill:#1d1d1b"/>
                    <path data-name="패스 13910" d="m202.728 103.679 2.048 3.941s-4.431 34.542-3.785 40.035l6.189 12.111 5.571-11.958s-5.1-27.951-5.764-39.72l2.243-4.417z" transform="translate(-117.444 -60.995)" style="fill:#1d1d1b"/>
                    <path data-name="패스 13911" d="m236.625 277.715 22.981 1.231s3.572 2 .31 3.231-19.41 6.461-19.41 6.461l-8.54-3.538-3.882-3.231z" transform="translate(-133.318 -163.396)" style="fill:#fff"/>
                    <path data-name="패스 13912" d="m236.042 277.537 11.128.6 7.886.422 2.7.145.841.045a1.308 1.308 0 0 0 .4.021c.09-.034-.2-.14-.135-.029s.335.213.435.286c.367.267.9.672.985 1.146.162.876-1.767 1.284-2.417 1.511-2.559.893-5.134 1.741-7.708 2.591q-3.992 1.318-7.989 2.618l-2.1.683a.794.794 0 0 0-.2.064c-.12.088.142-.009.148.007-.039-.1-.6-.25-.7-.29l-6.822-2.826c-.3-.124-.6-.278-.907-.376-.2-.063.067.012.077.054-.017-.072-.242-.2-.3-.249l-2.867-2.386-.7-.58-.084.647 7.471-3.641 1.067-.519c.48-.233.059-.944-.42-.71l-7.473 3.634-1.067.519a.412.412 0 0 0-.084.647l2.332 1.94 1.318 1.1a1.975 1.975 0 0 0 .514.34q3.245 1.347 6.491 2.689l1.412.584a2.005 2.005 0 0 0 .649.238 4.778 4.778 0 0 0 1.322-.408q3.746-1.217 7.488-2.447a682.34 682.34 0 0 0 8.464-2.825 18.049 18.049 0 0 0 2.91-1.092 1.635 1.635 0 0 0 1-1.556 3.311 3.311 0 0 0-2.279-2.2c-.591-.036-1.183-.063-1.775-.095l-7.206-.386-13.543-.725-.263-.014c-.534-.029-.533.795 0 .823" transform="translate(-132.735 -162.807)" style="fill:#1d1d1b"/>
                    <path data-name="패스 13913" d="M259.917 283.976c-3.261 1.231-19.41 6.461-19.41 6.461l-8.54-3.538-2.715-2.26-1.167.568 3.882 3.231 8.54 3.538s16.149-5.231 19.41-6.462c1.672-.631 1.547-1.464 1.029-2.126a3.035 3.035 0 0 1-1.029.587" transform="translate(-133.318 -166.734)" style="fill:#fff"/>
                    <path data-name="패스 13914" d="M259.223 283c-2.205.83-4.457 1.549-6.692 2.292q-4.381 1.457-8.772 2.886l-3 .976c-.256.083-.524.151-.773.251-.028.011-.139.024-.154.05.025-.042.27.087.134-.022a4.04 4.04 0 0 0-.9-.371l-1.628-.674-3.876-1.606-1.56-.646c-.14-.058-.282-.13-.426-.177-.234-.075.15.167.037.021a3.623 3.623 0 0 0-.555-.461l-.9-.75-1.2-1a.44.44 0 0 0-.5-.064l-1.167.568a.411.411 0 0 0-.084.646l2.817 2.344c.349.291.688.626 1.063.885a3.986 3.986 0 0 0 .749.341l7.6 3.148a1.045 1.045 0 0 0 .618.15 4.937 4.937 0 0 0 .606-.2q1.616-.524 3.23-1.051 5.007-1.634 10.005-3.3c1.528-.51 3.057-1.022 4.576-1.559a7.087 7.087 0 0 0 2-.888 1.475 1.475 0 0 0 .253-2.2.426.426 0 0 0-.652-.083 2.8 2.8 0 0 1-.845.482c-.49.195-.276.991.221.794a3.947 3.947 0 0 0 1.212-.693l-.653-.083c.168.222.362.5.253.787-.159.419-.76.629-1.137.773-.428.163-.862.312-1.294.463-1.346.47-2.7.924-4.05 1.376q-4.821 1.612-9.655 3.183l-3.361 1.094c-.268.087-.557.153-.816.265 0 0-.128.039-.128.042-.023-.131.377.1.055-.067-1-.518-2.119-.878-3.158-1.308l-4.059-1.682-.739-.306a1.5 1.5 0 0 0-.386-.16c-.123-.006.135.08.135.08 0-.019-.13-.107-.145-.121-.214-.193-.445-.371-.667-.555l-3.057-2.544-.084.647 1.167-.568-.5-.064 2.5 2.08a5.8 5.8 0 0 0 1.559.766l6.96 2.883a1.184 1.184 0 0 0 .645.173 2.787 2.787 0 0 0 .4-.128l2.447-.8q4.295-1.4 8.583-2.816c2.665-.883 5.352-1.731 7.98-2.72.495-.186.28-.982-.221-.794" transform="translate(-132.734 -166.151)" style="fill:#1d1d1b"/>
                    <path data-name="패스 13915" d="M251.663 259.88a15.152 15.152 0 0 0-10.41-.317 14.123 14.123 0 0 0-7.754 6.888 4.151 4.151 0 0 0-.56 2.187 1.788 1.788 0 0 0 1.356 1.643c1.206.191 2.006-1.143 2.615-2.192a12.435 12.435 0 0 1 6.116-5.258s-3.4 4.228-4.7 6.164-2.215 4.259-.912 4.9 2.084-.9 4.038-3.226 3.647-5.291 5.34-5.678c0 0-2.475 4-3.387 5.678s-2.214 2.839-.521 3.871 2.866-1.29 4.3-3.484 3.517-4.517 4.559-4.645c0 0-4.689 7.356-3.256 8s2.605-.645 4.168-2.71 3.778-3.355 4.689-4.9-.416-4.937-5.679-6.92" transform="translate(-136.149 -152.258)" style="fill:#fff"/>
                    <path data-name="패스 13916" d="M251.188 258.9a16.351 16.351 0 0 0-8.512-.882 14.133 14.133 0 0 0-6.9 3.436 14.515 14.515 0 0 0-2.434 2.836 6.768 6.768 0 0 0-1.414 3.589 2.2 2.2 0 0 0 1.914 2.245 2.95 2.95 0 0 0 2.4-1.689 17.421 17.421 0 0 1 2.568-3.4 12.074 12.074 0 0 1 3.736-2.395l-.4-.688q-1.112 1.385-2.2 2.79a33.536 33.536 0 0 0-3.3 4.679c-.656 1.237-1.742 4.2.6 4.437a2.237 2.237 0 0 0 1.773-.881c.794-.831 1.464-1.786 2.2-2.669.91-1.095 1.72-2.264 2.61-3.372a5.461 5.461 0 0 1 2.491-2.133l-.469-.6c-1.418 2.292-2.742 4.639-4.147 6.937a2.656 2.656 0 0 0-.572 2.1 2.235 2.235 0 0 0 1.811 1.371 2.458 2.458 0 0 0 2-1 21.611 21.611 0 0 0 1.917-2.772 22.029 22.029 0 0 1 2.3-3c.536-.579 1.278-1.478 2.113-1.616l-.469-.6a48.852 48.852 0 0 0-2.095 3.623 19.166 19.166 0 0 0-1.232 2.747 2.381 2.381 0 0 0-.1 1.9c.567.9 2.042.484 2.724 0 1.413-1.009 2.258-2.623 3.473-3.834a27.782 27.782 0 0 0 3.346-3.314 2.822 2.822 0 0 0 .455-2.256c-.549-2.858-3.7-4.631-6.178-5.582-.5-.191-.715.6-.221.794 2.113.809 4.637 2.2 5.446 4.458a2.335 2.335 0 0 1 .042 1.753 10.277 10.277 0 0 1-2.63 2.764 18.5 18.5 0 0 0-1.667 1.683c-.534.629-1 1.31-1.549 1.926a4.231 4.231 0 0 1-1.465 1.2 1.337 1.337 0 0 1-.69.094 1.443 1.443 0 0 1-.355-.1c-.1-.042 0 .016-.015 0-.037-.041-.034-.066-.039-.128a1.525 1.525 0 0 1 .015-.331 4.968 4.968 0 0 1 .279-1 19.267 19.267 0 0 1 1.081-2.355 49.404 49.404 0 0 1 2.094-3.623c.211-.331-.136-.659-.469-.6a3.46 3.46 0 0 0-1.578.939 15.894 15.894 0 0 0-1.94 2.11 29.667 29.667 0 0 0-1.742 2.49 10.982 10.982 0 0 1-1.78 2.4 1.267 1.267 0 0 1-1.972-.169c-.439-.6.263-1.46.578-1.964.772-1.234 1.462-2.522 2.212-3.77q.862-1.433 1.742-2.856a.417.417 0 0 0-.469-.6 4.346 4.346 0 0 0-1.952 1.3 25.863 25.863 0 0 0-2 2.471c-.741.985-1.52 1.933-2.29 2.9a12.186 12.186 0 0 1-1.816 2.092c-.451.353-1.166.4-1.374-.259-.283-.893.375-2.08.787-2.83a33.669 33.669 0 0 1 2.982-4.218q1.14-1.476 2.308-2.93c.222-.277.028-.863-.4-.688a13.041 13.041 0 0 0-5.4 4.033c-.652.834-1.089 1.812-1.752 2.633a1.914 1.914 0 0 1-1.068.775 1.2 1.2 0 0 1-1.269-.923c-.376-1.138.469-2.463 1.05-3.4a13.6 13.6 0 0 1 2.24-2.722 13.4 13.4 0 0 1 6.052-3.291 15.306 15.306 0 0 1 8.785.734c.5.186.718-.609.221-.794" transform="translate(-135.564 -151.677)" style="fill:#1d1d1b"/>
                    <path data-name="패스 13917" d="M251.188 258.9a16.351 16.351 0 0 0-8.512-.882 14.133 14.133 0 0 0-6.9 3.436 14.515 14.515 0 0 0-2.434 2.836 6.768 6.768 0 0 0-1.414 3.589 2.2 2.2 0 0 0 1.914 2.245 2.95 2.95 0 0 0 2.4-1.689 17.421 17.421 0 0 1 2.568-3.4 12.074 12.074 0 0 1 3.736-2.395l-.4-.688q-1.112 1.385-2.2 2.79a33.536 33.536 0 0 0-3.3 4.679c-.656 1.237-1.742 4.2.6 4.437a2.237 2.237 0 0 0 1.773-.881c.794-.831 1.464-1.786 2.2-2.669.91-1.095 1.72-2.264 2.61-3.372a5.461 5.461 0 0 1 2.491-2.133l-.469-.6c-1.418 2.292-2.742 4.639-4.147 6.937a2.656 2.656 0 0 0-.572 2.1 2.235 2.235 0 0 0 1.811 1.371 2.458 2.458 0 0 0 2-1 21.611 21.611 0 0 0 1.917-2.772 22.029 22.029 0 0 1 2.3-3c.536-.579 1.278-1.478 2.113-1.616l-.469-.6a48.852 48.852 0 0 0-2.095 3.623 19.166 19.166 0 0 0-1.232 2.747 2.381 2.381 0 0 0-.1 1.9c.567.9 2.042.484 2.724 0 1.413-1.009 2.258-2.623 3.473-3.834a27.782 27.782 0 0 0 3.346-3.314 2.822 2.822 0 0 0 .455-2.256c-.549-2.858-3.7-4.631-6.178-5.582-.5-.191-.715.6-.221.794 2.113.809 4.637 2.2 5.446 4.458a2.335 2.335 0 0 1 .042 1.753 10.277 10.277 0 0 1-2.63 2.764 18.5 18.5 0 0 0-1.667 1.683c-.534.629-1 1.31-1.549 1.926a4.231 4.231 0 0 1-1.465 1.2 1.337 1.337 0 0 1-.69.094 1.443 1.443 0 0 1-.355-.1c-.1-.042 0 .016-.015 0-.037-.041-.034-.066-.039-.128a1.525 1.525 0 0 1 .015-.331 4.968 4.968 0 0 1 .279-1 19.267 19.267 0 0 1 1.081-2.355 49.404 49.404 0 0 1 2.094-3.623c.211-.331-.136-.659-.469-.6a3.46 3.46 0 0 0-1.578.939 15.894 15.894 0 0 0-1.94 2.11 29.667 29.667 0 0 0-1.742 2.49 10.982 10.982 0 0 1-1.78 2.4 1.267 1.267 0 0 1-1.972-.169c-.439-.6.263-1.46.578-1.964.772-1.234 1.462-2.522 2.212-3.77q.862-1.433 1.742-2.856a.417.417 0 0 0-.469-.6 4.346 4.346 0 0 0-1.952 1.3 25.863 25.863 0 0 0-2 2.471c-.741.985-1.52 1.933-2.29 2.9a12.186 12.186 0 0 1-1.816 2.092c-.451.353-1.166.4-1.374-.259-.283-.893.375-2.08.787-2.83a33.669 33.669 0 0 1 2.982-4.218q1.14-1.476 2.308-2.93c.222-.277.028-.863-.4-.688a13.041 13.041 0 0 0-5.4 4.033c-.652.834-1.089 1.812-1.752 2.633a1.914 1.914 0 0 1-1.068.775 1.2 1.2 0 0 1-1.269-.923c-.376-1.138.469-2.463 1.05-3.4a13.6 13.6 0 0 1 2.24-2.722 13.4 13.4 0 0 1 6.052-3.291 15.306 15.306 0 0 1 8.785.734c.5.186.718-.609.221-.794" transform="translate(-135.564 -151.677)" style="fill:#1d1d1b"/>
                    <path data-name="패스 13918" d="M158.69 253.762h-54.208a4.886 4.886 0 0 1-4.213-3.056L89.4 221.232c-.623-1.688.253-3.056 1.957-3.056h54.208a4.886 4.886 0 0 1 4.213 3.056l10.872 29.473c.623 1.688-.254 3.056-1.957 3.056" transform="translate(-52.137 -128.366)" style="fill:#fff"/>
                    <path data-name="패스 13919" d="M158.107 252.76h-49.13c-1.654 0-3.309.008-4.963 0a4.418 4.418 0 0 1-3.945-2.8c-.255-.666-.494-1.34-.741-2.009l-3.684-9.988-4.3-11.65c-.71-1.924-1.454-3.838-2.13-5.773a2.188 2.188 0 0 1-.021-1.7 1.7 1.7 0 0 1 1.579-.84H144.307a4.711 4.711 0 0 1 2.4.475 4.555 4.555 0 0 1 2.109 2.339c.087.228.169.459.254.688l3.122 8.465 4.4 11.939q1.452 3.936 2.9 7.872c.054.149.112.3.165.446.452 1.289-.068 2.5-1.556 2.539a.412.412 0 0 0 0 .823 2.442 2.442 0 0 0 2.57-2.31 3.781 3.781 0 0 0-.292-1.483l-.959-2.6-3.97-10.763-4.231-11.468-1.313-3.558a6.57 6.57 0 0 0-1.769-2.925 5.3 5.3 0 0 0-3.574-1.3H90.628a2.419 2.419 0 0 0-2.429 2.434 7.258 7.258 0 0 0 .662 2.354l3.458 9.374 4.449 12.059c.829 2.248 1.645 4.5 2.488 6.744a5.276 5.276 0 0 0 4.664 3.44c.44.007.882 0 1.322 0h52.865a.412.412 0 0 0 0-.823" transform="translate(-51.553 -127.776)" style="fill:#1d1d1b"/>
                    <path data-name="패스 13920" d="M160.774 250.705 149.9 221.232a4.885 4.885 0 0 0-4.212-3.056H91.482a2 2 0 0 0-2.068 1.374 2.437 2.437 0 0 1 1.186-.283h54.208a4.887 4.887 0 0 1 4.213 3.056l10.872 29.477a2.661 2.661 0 0 1 .11 1.682 2.126 2.126 0 0 0 .771-2.773" transform="translate(-52.263 -128.366)" style="fill:#fff"/>
                    <path data-name="패스 13921" d="m160.641 250.2-2.057-5.577-4.31-11.683-3.72-10.086c-.255-.692-.507-1.384-.765-2.075a5.132 5.132 0 0 0-4.55-3.32c-1.5-.014-3 0-4.5 0H95.308c-1.409 0-2.819-.019-4.227 0a2.362 2.362 0 0 0-2.361 1.586.294.294 0 0 0 .428.326 3.9 3.9 0 0 1 1.85-.244h53.095a4.582 4.582 0 0 1 3.9 2.175 10.812 10.812 0 0 1 .815 1.974l3.38 9.161 4.347 11.784 2.589 7.019a2.8 2.8 0 0 1 .186 1.733.293.293 0 0 0 .427.326 2.471 2.471 0 0 0 .9-3.1c-.122-.348-.684-.2-.561.153a1.918 1.918 0 0 1-.638 2.448l.428.326a4.727 4.727 0 0 0-.506-2.909l-1.35-3.659-4.2-11.388-3.886-10.534-.954-2.588a5.19 5.19 0 0 0-4.481-3.5c-1.282-.04-2.571 0-3.853 0H90.309a3.106 3.106 0 0 0-1.455.322l.427.325c.346-1.071 1.38-1.163 2.331-1.163h53.631a4.264 4.264 0 0 1 2.719 1.11 4.564 4.564 0 0 1 1.3 1.861q.151.407.3.815l3.2 8.687 4.368 11.841 2.812 7.622.141.382c.128.346.69.2.561-.153" transform="translate(-51.85 -127.942)" style="fill:#1d1d1b"/>
                    <path data-name="패스 13922" d="M257.565 237.647s-9.673 4.557-14.221 2.412a16.818 16.818 0 0 1-6.93-6.866l4.981 12.445 6.5-1.717" transform="translate(-138.186 -137.201)" style="fill:#1d1d1b"/>
                    <path data-name="패스 13923" d="m279.614 179.22 3.416 15.845 1.061-9.192z" transform="translate(-163.437 -105.446)" style="fill:#1d1d1b"/>
                </g>
            </g>
        </g>
    </g>
    <g data-name="그룹 1197">
        <g data-name="그룹 498">
            <path data-name="패스 13924" d="M28.5 14.25A14.25 14.25 0 1 1 14.251 0 14.25 14.25 0 0 1 28.5 14.25" transform="rotate(-22 157.281 29.178)" style="fill:#fff3b0"/>
            <path data-name="패스 13925" d="M28.473 14.662a13.961 13.961 0 0 1-9.114 13 13.974 13.974 0 0 1-15.375-4.2A13.829 13.829 0 0 1 17.371 1.1a13.793 13.793 0 0 1 11.1 13.559.424.424 0 0 0 .848 0A14.834 14.834 0 0 0 19.717.889 14.679 14.679 0 0 0 2.071 22.228a14.825 14.825 0 0 0 15.455 6.825 14.786 14.786 0 0 0 11.612-12.081 15.6 15.6 0 0 0 .184-2.31.424.424 0 0 0-.848 0" transform="rotate(-22 156.42 30.405)" style="fill:#1d1d1b"/>
            <path data-name="패스 13926" d="M23.02 11.51A11.51 11.51 0 1 1 11.51 0a11.51 11.51 0 0 1 11.51 11.51" transform="rotate(-22 162.96 20.76)" style="fill:#ffe495"/>
            <path data-name="패스 13927" d="M23 11.924a11.2 11.2 0 0 1-7.374 10.45 11.206 11.206 0 0 1-12.297-3.429A11.089 11.089 0 0 1 14.118 1.057 11.2 11.2 0 0 1 23 11.924a.424.424 0 0 0 .848 0 12.068 12.068 0 0 0-7.8-11.2A11.937 11.937 0 0 0 1.7 18.106a12.059 12.059 0 0 0 12.572 5.516 12.021 12.021 0 0 0 9.428-9.833 12.842 12.842 0 0 0 .148-1.865.424.424 0 0 0-.848 0" transform="rotate(-22 162.095 21.998)" style="fill:#1d1d1b"/>
        </g>
        <text transform="rotate(-22 203.647 -5.609)" style="font-size:18px;font-family:Roboto-Bold,Roboto;font-weight:700;letter-spacing:-.01em"><tspan x="0" y="0">e</tspan></text>
    </g>
</svg>
