<svg xmlns="http://www.w3.org/2000/svg" width="16" height="16" viewBox="0 0 16 16">
    <g data-name="5">
        <path data-name="Rectangle 3976" style="fill:none" d="M0 0h16v16H0z"/>
        <path d="M3.788 1h8.364a2.788 2.788 0 0 1 2.788 2.788v8.364a2.788 2.788 0 0 1-2.788 2.788H3.788A2.788 2.788 0 0 1 1 12.151V3.788A2.788 2.788 0 0 1 3.788 1zm0 1.394a1.394 1.394 0 0 0-1.394 1.394v8.364a1.394 1.394 0 0 0 1.394 1.394h8.364a1.394 1.394 0 0 0 1.394-1.394V3.788a1.394 1.394 0 0 0-1.394-1.394z"/>
        <g data-name="Group 2157">
            <path data-name="Path 14175" d="M7.856 5.023c-.6-.654-2.253-.388-2.641-.322A6.918 6.918 0 0 1 4.109 3.2a6.837 6.837 0 0 0 .377-1.963C4.486.643 4.255 0 3.608 0a.653.653 0 0 0-.544.327 3.289 3.289 0 0 0 .275 2.517A17.279 17.279 0 0 1 2.217 5.55c-.663.272-2.07.937-2.2 1.674a.633.633 0 0 0 .194.588.807.807 0 0 0 .571.211c.846 0 1.693-1.209 2.264-2.246a14.059 14.059 0 0 1 2.016-.543 3.165 3.165 0 0 0 2.1.926c.55 0 .755-.244.83-.449a.708.708 0 0 0-.129-.688m-.582.421c-.027.161-.226.322-.6.238A2.964 2.964 0 0 1 5.5 5.073a4.752 4.752 0 0 1 1.45-.022c.173.033.372.133.323.394M3.414.538A.216.216 0 0 1 3.6.416c.2 0 .248.255.248.466a6.64 6.64 0 0 1-.27 1.48A2.576 2.576 0 0 1 3.414.538m-.049 4.607A14.153 14.153 0 0 0 3.9 3.826a6.969 6.969 0 0 0 .733.987 11.85 11.85 0 0 0-1.267.333M2.012 6.1C1.468 7 .934 7.563.621 7.563a.218.218 0 0 1-.14-.05.21.21 0 0 1-.07-.205c.059-.322.679-.787 1.6-1.209" transform="translate(3.988 3.958)" style="stroke:#000;stroke-width:.3px"/>
        </g>
    </g>
</svg>
