<svg xmlns="http://www.w3.org/2000/svg" width="20" height="20" viewBox="0 0 20 20">
    <path data-name="빼기 8" d="M15.1 12.414H.9a.909.909 0 0 1-.684-.309.876.876 0 0 1-.211-.692l.688-5.206L.007 1A.876.876 0 0 1 .218.308.91.91 0 0 1 .9 0h14.2a.909.909 0 0 1 .684.308.878.878 0 0 1 .208.692l-.685 5.207.685 5.206a.879.879 0 0 1-.212.693.909.909 0 0 1-.68.308zM3.535 7.151a1.656 1.656 0 0 0 .608 1.336 2.379 2.379 0 0 0 1.567.506 2.512 2.512 0 0 0 1.645-.514 1.691 1.691 0 0 0 .622-1.367 1.49 1.49 0 0 0-1.071-1.494 1.752 1.752 0 0 0 .7-.567 1.353 1.353 0 0 0 .268-.809A1.66 1.66 0 0 0 7.3 2.9a2.4 2.4 0 0 0-1.59-.486 2.53 2.53 0 0 0-1.07.224 1.8 1.8 0 0 0-.756.622 1.572 1.572 0 0 0-.27.9h1.27a.643.643 0 0 1 .246-.521.941.941 0 0 1 .611-.2.9.9 0 0 1 .635.215.788.788 0 0 1 .231.6.888.888 0 0 1-.233.642.96.96 0 0 1-.716.241h-.677v.994h.672c.7 0 1.055.322 1.055.958a.828.828 0 0 1-.257.635 1 1 0 0 1-.709.239 1 1 0 0 1-.666-.229.738.738 0 0 1-.27-.589zm7.133-3.141V8.9h1.27V2.5H11.8l-2.65.95v1.029l1.515-.469z" transform="translate(2 5.586)" style="fill:#fff"/>
    <path data-name="패스 16472" d="M17.609 7.086H4V4.7c0-.66.381-1.2.851-1.2h11.908c.47 0 .851.536.851 1.2z" transform="translate(-.805 -1.5)" style="fill:#ccd2e1"/>
</svg>
