<svg data-name="icn_설정/관리_20px" xmlns="http://www.w3.org/2000/svg" width="20" height="20" viewBox="0 0 20 20">
    <defs>
        <clipPath id="bqt8tgy52a">
            <path data-name="사각형 18332" transform="translate(.323)" style="fill:#fff" d="M0 0h20v20H0z"/>
        </clipPath>
    </defs>
    <g data-name="그룹 40474" transform="translate(-.323)" style="clip-path:url(#bqt8tgy52a)">
        <path data-name="패스 23884" d="M16.671 10.943a.885.885 0 0 1-.542-.949c.014-.073.024-.151.032-.225s.02-.149.026-.223a.879.879 0 0 1 .756-.786.888.888 0 0 0 .757-1l-.036-.251a.883.883 0 0 0-.763-.757.832.832 0 0 0-.234 0 .881.881 0 0 1-.943-.55 6.633 6.633 0 0 0-.178-.418.88.88 0 0 1 .265-1.059.885.885 0 0 0 .156-1.243l-.156-.2a.885.885 0 0 0-1.242-.155.879.879 0 0 1-1.091-.006 7.289 7.289 0 0 0-.361-.274.881.881 0 0 1-.3-1.049.882.882 0 0 0-.489-1.151L12.1.554a.884.884 0 0 0-1.155.484.881.881 0 0 1-.949.54c-.074-.012-.148-.022-.225-.031s-.149-.019-.224-.025A.883.883 0 0 1 8.756.77V.765a.885.885 0 0 0-1-.756l-.248.035a.885.885 0 0 0-.756 1 .879.879 0 0 1-.549.942 6.34 6.34 0 0 0-.416.178.881.881 0 0 1-1.062-.264.89.89 0 0 0-1.245-.155l-.2.154a.887.887 0 0 0-.156 1.244.88.88 0 0 1-.004 1.092q-.141.176-.271.359a.873.873 0 0 1-.823.36A.955.955 0 0 1 1.8 4.9a.885.885 0 0 0-1.155.485l-.095.23a.885.885 0 0 0 .485 1.155h.005a.884.884 0 0 1 .542.95c-.011.074-.023.148-.032.222s-.016.152-.023.226a.885.885 0 0 1-.76.787.887.887 0 0 0-.757 1l.035.25a.89.89 0 0 0 .768.757.845.845 0 0 0 .231 0 .878.878 0 0 1 .943.55c.057.141.114.279.178.416a.884.884 0 0 1-.265 1.056.883.883 0 0 0-.154 1.241l.154.2a.889.889 0 0 0 1.244.153.881.881 0 0 1 1.094.006c.117.095.237.185.36.274a.875.875 0 0 1 .3 1.047.885.885 0 0 0 .487 1.153l.235.1a.884.884 0 0 0 1.152-.487.88.88 0 0 1 .949-.542c.075.011.149.023.223.032l.226.024a.876.876 0 0 1 .786.758.889.889 0 0 0 1 .756l.248-.033a.886.886 0 0 0 .755-1 .879.879 0 0 1 .549-.941c.14-.055.281-.114.418-.176a.878.878 0 0 1 1.059.261v.005a.886.886 0 0 0 1.243.153l.2-.155a.884.884 0 0 0 .156-1.242.877.877 0 0 1 .006-1.091c.095-.117.185-.239.273-.362a.878.878 0 0 1 .824-.36.946.946 0 0 1 .226.06.886.886 0 0 0 1.153-.486l.1-.232a.886.886 0 0 0-.487-1.155m-8.445 2.873a5 5 0 1 1 5.583-4.342 5 5 0 0 1-5.583 4.342" transform="translate(1.323 1)" style="fill:#fff"/>
    </g>
</svg>
