<svg xmlns="http://www.w3.org/2000/svg" width="13.524" height="13.694" viewBox="0 0 13.524 13.694">
  <path id="icon" d="M14.262,4.441h-.771V3.653a.5.5,0,1,0-1,0v.788H7.509V3.653a.5.5,0,1,0-1,0v.788H5.738a2.5,2.5,0,0,0-2.5,2.5v7.406a2.5,2.5,0,0,0,2.5,2.5h8.524a2.5,2.5,0,0,0,2.5-2.5V6.941A2.5,2.5,0,0,0,14.262,4.441Zm-8.524,1h8.524a1.5,1.5,0,0,1,1.5,1.5v.376H4.238V6.941a1.5,1.5,0,0,1,1.5-1.5Zm8.524,10.406H5.738a1.5,1.5,0,0,1-1.5-1.5V8.317H15.762v6.03a1.5,1.5,0,0,1-1.5,1.5ZM6.821,10.49a.5.5,0,1,1-.707,0A.5.5,0,0,1,6.821,10.49Zm2.355,0a.5.5,0,1,1-.707,0,.5.5,0,0,1,.707,0Zm2.355,0a.5.5,0,1,1-.707,0,.5.5,0,0,1,.707,0Zm2.355,0a.5.5,0,1,1-.707,0,.5.5,0,0,1,.707,0ZM6.821,12.968a.5.5,0,1,1-.707,0A.5.5,0,0,1,6.821,12.968Zm2.355,0a.5.5,0,1,1-.707,0,.5.5,0,0,1,.707,0Zm2.355,0a.5.5,0,1,1-.707,0,.5.5,0,0,1,.707,0Z" transform="translate(-3.238 -3.153)"/>
</svg>
