<svg xmlns="http://www.w3.org/2000/svg" width="16" height="16" viewBox="0 0 16 16">
    <g data-name="4">
        <path data-name="Rectangle 3974" style="fill:none" d="M0 0h16v16H0z"/>
        <path d="m4.819 7.273 3.454 4.44 3.454-4.44h-2.06a.7.7 0 0 1-.7-.7V3.091a.7.7 0 0 0-1.394 0v3.485a.7.7 0 0 1-.7.7zm6.907-1.394a1.394 1.394 0 0 1 1.1 2.25L9.372 12.57a1.394 1.394 0 0 1-2.2 0L3.719 8.128a1.394 1.394 0 0 1 1.1-2.25h1.363V3.091a2.091 2.091 0 1 1 4.182 0v2.788zm1.425 6.97a.7.7 0 0 1 1.394 0 2.788 2.788 0 0 1-2.788 2.788H4.788A2.788 2.788 0 0 1 2 12.848a.7.7 0 0 1 1.394 0 1.394 1.394 0 0 0 1.394 1.394h6.97a1.394 1.394 0 0 0 1.393-1.394z"/>
    </g>
</svg>
