<svg xmlns="http://www.w3.org/2000/svg" width="20" height="20" viewBox="0 0 20 20">
    <g data-name="그룹 5767">
        <g data-name="그룹 5766">
            <g data-name="그룹 5765">
                <path data-name="패스 14056" d="M5.5 8.5c0-3.979 1.116-6 6.5-6s6.5 2.025 6.5 6" transform="translate(-2.5 .5)" style="fill:none;stroke:#967adc"/>
                <path data-name="패스 14057" d="M3.5 17.145c0 1.21-.278 2.191.731 2.191h2.012a2.034 2.034 0 0 0 1.827-2.191v-3.287a2.034 2.034 0 0 0-1.827-2.191H3.5z" transform="translate(-.468 -3.33)" style="stroke-linecap:round;stroke-linejoin:round;fill:none;stroke:#967adc"/>
                <path data-name="패스 16468" d="M8.034 17.145c0 1.21.278 2.191-.731 2.191H5.294a2.034 2.034 0 0 1-1.827-2.191v-3.287a2.034 2.034 0 0 1 1.827-2.191h2.74z" transform="translate(7.937 -3.33)" style="stroke-linecap:round;stroke-linejoin:round;fill:none;stroke:#967adc"/>
            </g>
        </g>
        <path data-name="패스 16469" d="M14970.934-6122.548v7.368" transform="translate(-14965.946 6130.95)" style="fill:none;stroke:#967adc"/>
        <path data-name="패스 16470" d="M14970.934-6122.548v7.368" transform="translate(-14957.048 6130.95)" style="fill:none;stroke:#967adc"/>
    </g>
</svg>
