<svg xmlns="http://www.w3.org/2000/svg" width="20" height="20" viewBox="0 0 20 20">
    <path data-name="패스 13918" d="M4 15.026V5a1 1 0 0 1 1-1h14a1 1 0 0 1 1 1v14a1 1 0 0 1-1 1H9z" transform="translate(-3 -2)" style="fill:#fff"/>
    <path data-name="패스 13919" d="M3.938 15.441h3.925a1.11 1.11 0 0 1 1.122 1.1v3.9z" transform="translate(-2.984 -2.442)" style="fill:#ccd2e1"/>
    <path data-name="Line 55" d="M9 1H0V-.5h9z" transform="translate(5 6.689)" style="fill:#798ddb"/>
    <path data-name="Line 55" d="M9 1H0V-.5h9z" transform="translate(5 9.842)" style="fill:#798ddb"/>
    <path data-name="Line 55" d="M6 1H0V-.5h6z" transform="translate(7.857 12.994)" style="fill:#798ddb"/>
</svg>
