<svg xmlns="http://www.w3.org/2000/svg" width="16" height="16" viewBox="0 0 16 16">
    <g data-name="1">
        <path data-name="Rectangle 3973" style="fill:none" d="M0 0h16v16H0z"/>
        <path d="M11.714 2.023h.044a2.758 2.758 0 0 1 2.787 2.727v8.523A2.758 2.758 0 0 1 11.758 16h-6.97A2.758 2.758 0 0 1 2 13.273V4.75a2.758 2.758 0 0 1 2.788-2.727h.044A1.389 1.389 0 0 1 6.182 1h4.182a1.389 1.389 0 0 1 1.35 1.023zM4.832 3.386h-.044A1.379 1.379 0 0 0 3.394 4.75v8.523a1.379 1.379 0 0 0 1.394 1.364h6.97a1.379 1.379 0 0 0 1.394-1.364V4.75a1.379 1.379 0 0 0-1.394-1.364h-.044a1.389 1.389 0 0 1-1.35 1.023H6.182a1.389 1.389 0 0 1-1.35-1.023zm.653 4.091a.682.682 0 1 1 0-1.364h5.576a.682.682 0 1 1 0 1.364zm0 2.727a.682.682 0 1 1 0-1.364h5.576a.682.682 0 1 1 0 1.364zm0 2.727a.682.682 0 1 1 0-1.364h4.182a.682.682 0 1 1 0 1.364zm.7-10.568v.682h4.182v-.681z"/>
    </g>
</svg>
