<svg xmlns="http://www.w3.org/2000/svg" width="16" height="16" viewBox="0 0 16 16">
    <g data-name="2">
        <path data-name="Rectangle 3977" style="fill:none" d="M0 0h16v16H0z"/>
        <path d="M7.273 10.613v2.464a2.091 2.091 0 0 1-4.182 0v-2.876A2.789 2.789 0 0 1 1 7.501v-.7a2.788 2.788 0 0 1 2.788-2.785h2.63l5.877-2.811a2.091 2.091 0 0 1 2.993 1.886v7.594a2.091 2.091 0 0 1-2.853 1.947zm-1.394-.324H4.485v2.788a.7.7 0 0 0 1.394 0zm1.394-5.137v3.964l5.67 2.219a.7.7 0 0 0 .951-.649V3.091a.7.7 0 0 0-1-.629zM5.879 8.895V5.41H3.788a1.394 1.394 0 0 0-1.394 1.394v.7a1.394 1.394 0 0 0 1.394 1.394z"/>
    </g>
</svg>
