<svg xmlns="http://www.w3.org/2000/svg" width="37" height="37" viewBox="0 0 37 37">
  <g id="pay-icon_simple_pay" data-name="pay-icon/simple_pay" transform="translate(0.5 0.5)">
    <g id="vuesax_broken_money-4" data-name="vuesax/broken/money-4">
      <g id="money-4">
        <path id="Vector" d="M0,7.5C0,2.25,3,0,7.5,0h15C27,0,30,2.25,30,7.5V18c0,5.25-3,7.5-7.5,7.5H7.5C3,25.5,0,23.25,0,18V13.545" transform="translate(3 5.25)" fill="none" stroke="#5055b1" stroke-linecap="round" stroke-linejoin="round" stroke-miterlimit="10" stroke-width="1.5" stroke-dasharray="0 0"/>
        <path id="Vector-2" data-name="Vector" d="M9,4.5A4.5,4.5,0,1,0,4.5,9" transform="translate(13.5 13.5)" fill="none" stroke="#5055b1" stroke-linecap="round" stroke-linejoin="round" stroke-miterlimit="10" stroke-width="1.5" stroke-dasharray="0 0"/>
        <path id="Vector-3" data-name="Vector" d="M6,0H3.75A3.751,3.751,0,0,0,0,3.75V6" transform="translate(6.75 9)" fill="none" stroke="#5055b1" stroke-linecap="round" stroke-linejoin="round" stroke-miterlimit="10" stroke-width="1.5" stroke-dasharray="0 0"/>
        <path id="Vector-4" data-name="Vector" d="M0,0H2.25A3.751,3.751,0,0,1,6,3.75V6" transform="translate(23.25 9)" fill="none" stroke="#5055b1" stroke-linecap="round" stroke-linejoin="round" stroke-miterlimit="10" stroke-width="1.5" stroke-dasharray="0 0"/>
        <path id="Vector-5" data-name="Vector" d="M6,6H3.75A3.751,3.751,0,0,1,0,2.25V0" transform="translate(6.75 21)" fill="none" stroke="#5055b1" stroke-linecap="round" stroke-linejoin="round" stroke-miterlimit="10" stroke-width="1.5" stroke-dasharray="0 0"/>
        <path id="Vector-6" data-name="Vector" d="M0,6H2.25A3.751,3.751,0,0,0,6,2.25V0" transform="translate(23.25 21)" fill="none" stroke="#5055b1" stroke-linecap="round" stroke-linejoin="round" stroke-miterlimit="10" stroke-width="1.5" stroke-dasharray="0 0"/>
        <path id="Vector-7" data-name="Vector" d="M36,0V36H0V0Z" fill="none" stroke="#5055b1" stroke-width="1" opacity="0"/>
      </g>
    </g>
  </g>
</svg>
