<svg xmlns="http://www.w3.org/2000/svg" width="37" height="37" viewBox="0 0 37 37">
  <g id="pay-icon_dollar" data-name="pay-icon/dollar" transform="translate(0.5 0.5)">
    <g id="vuesax_broken_money-send" data-name="vuesax/broken/money-send">
      <g id="money-send">
        <g id="Group" transform="translate(14.25 11.25)">
          <path id="Vector" d="M0,7.89a2.566,2.566,0,0,0,2.505,2.625h2.82A2.233,2.233,0,0,0,7.5,8.22,1.981,1.981,0,0,0,6.015,6.045L1.5,4.47A1.971,1.971,0,0,1,.015,2.295,2.243,2.243,0,0,1,2.19,0H5.01A2.566,2.566,0,0,1,7.515,2.625" transform="translate(0 1.485)" fill="none" stroke="#5055b1" stroke-linecap="round" stroke-linejoin="round" stroke-width="1.5" stroke-dasharray="0 0"/>
          <path id="Vector-2" data-name="Vector" d="M0,0V13.5" transform="translate(3.75)" fill="none" stroke="#5055b1" stroke-linecap="round" stroke-linejoin="round" stroke-width="1.5" stroke-dasharray="0 0"/>
        </g>
        <path id="Vector-3" data-name="Vector" d="M15,0A15,15,0,0,0,8.4,28.47" transform="translate(3 3)" fill="none" stroke="#5055b1" stroke-linecap="round" stroke-linejoin="round" stroke-width="1.5" stroke-dasharray="0 0"/>
        <path id="Vector-4" data-name="Vector" d="M15,0A15.005,15.005,0,0,1,0,15" transform="translate(18 18)" fill="none" stroke="#5055b1" stroke-linecap="round" stroke-linejoin="round" stroke-width="1.5" stroke-dasharray="0 0"/>
        <path id="Vector-5" data-name="Vector" d="M6,6V0H0" transform="translate(27 3)" fill="none" stroke="#5055b1" stroke-linecap="round" stroke-linejoin="round" stroke-width="1.5" stroke-dasharray="0 0"/>
        <path id="Vector-6" data-name="Vector" d="M0,7.5,7.5,0" transform="translate(25.5 3)" fill="none" stroke="#5055b1" stroke-linecap="round" stroke-linejoin="round" stroke-width="1.5" stroke-dasharray="0 0"/>
        <path id="Vector-7" data-name="Vector" d="M36,0V36H0V0Z" fill="none" stroke="#5055b1" stroke-width="1" opacity="0"/>
      </g>
    </g>
  </g>
</svg>
