<svg xmlns="http://www.w3.org/2000/svg" width="37" height="37" viewBox="0 0 37 37">
  <g id="pay-icon_others" data-name="pay-icon/others" transform="translate(0.5 0.5)">
    <g id="vuesax_broken_receipt-item" data-name="vuesax/broken/receipt-item">
      <g id="receipt-item">
        <path id="Vector" d="M9,9.63A3.607,3.607,0,0,1,5.13,13.5H0V3.015A3.028,3.028,0,0,1,3.03,0,5.992,5.992,0,0,1,9,6Z" transform="translate(24 3)" fill="none" stroke="#5055b1" stroke-linecap="round" stroke-linejoin="round" stroke-miterlimit="10" stroke-width="1.5" stroke-dasharray="0 0"/>
        <path id="Vector-2" data-name="Vector" d="M0,0H4.5" transform="translate(13.5 19.515)" fill="none" stroke="#5055b1" stroke-linecap="round" stroke-linejoin="round" stroke-width="1.5" stroke-dasharray="0 0"/>
        <path id="Vector-3" data-name="Vector" d="M0,0H4.5" transform="translate(13.5 13.515)" fill="none" stroke="#5055b1" stroke-linecap="round" stroke-linejoin="round" stroke-width="1.5" stroke-dasharray="0 0"/>
        <path id="Vector-4" data-name="Vector" d="M36,0V36H0V0Z" fill="none" stroke="#5055b1" stroke-width="1" opacity="0"/>
        <path id="Vector-5" data-name="Vector" d="M0,13.5v15a1.5,1.5,0,0,0,2.4,1.2l2.565-1.92a1.511,1.511,0,0,1,1.98.15l2.49,2.5a1.512,1.512,0,0,0,2.13,0l2.52-2.52a1.487,1.487,0,0,1,1.95-.135L18.6,29.7A1.5,1.5,0,0,0,21,28.5V3a3.009,3.009,0,0,1,3-3H6C1.5,0,0,2.685,0,6V7.5" transform="translate(3 3)" fill="none" stroke="#5055b1" stroke-linecap="round" stroke-linejoin="round" stroke-miterlimit="10" stroke-width="1.5" stroke-dasharray="0 0"/>
        <path id="Vector-6" data-name="Vector" d="M0,0H.013" transform="translate(8.994 19.5)" fill="none" stroke="#5055b1" stroke-linecap="round" stroke-linejoin="round" stroke-width="2" stroke-dasharray="0 0"/>
        <path id="Vector-7" data-name="Vector" d="M.495.5H.508" transform="translate(8.497 13)" fill="none" stroke="#5055b1" stroke-linecap="round" stroke-linejoin="round" stroke-width="2" stroke-dasharray="0 0"/>
      </g>
    </g>
  </g>
</svg>
