<svg xmlns="http://www.w3.org/2000/svg" width="28" height="28" viewBox="0 0 28 28">
    <defs>
        <clipPath id="dfgmpavgra">
            <path data-name="Rectangle 3764" style="fill:none" d="M0 0h28v28H0z"/>
        </clipPath>
    </defs>
    <g style="opacity:.8">
        <path data-name="icon area" style="fill:none" d="M0 0h28v28H0z"/>
        <g data-name="Group 2035" style="clip-path:url(#dfgmpavgra)">
            <path data-name="Path 14080" d="M26.727 1.273H15.273a1.273 1.273 0 0 0-2.545 0H1.273A1.273 1.273 0 0 0 0 2.545v1.273a1.273 1.273 0 0 0 1.273 1.273v15.273a1.273 1.273 0 0 0 1.273 1.273h10.818v1.646l-3.632 3.631a.636.636 0 1 0 .9.9L14 24.445l3.368 3.368a.636.636 0 1 0 .9-.9l-3.632-3.632v-1.645h10.819a1.273 1.273 0 0 0 1.273-1.273V5.091A1.273 1.273 0 0 0 28 3.818V2.545a1.273 1.273 0 0 0-1.273-1.273m-1.272 19.092H2.545V5.091h22.91zm1.272-16.546H1.273V2.545h25.454zM5.727 14h6.364a.636.636 0 0 0 .636-.636.624.624 0 0 0-.116-.347l.01-.006L9.439 7.92l-.01.006a.611.611 0 0 0-1.039 0l-.01-.006-3.18 5.09.01.006a.62.62 0 0 0-.117.347.636.636 0 0 0 .634.637m3.182-4.526 2.034 3.254H6.875zm10.182 8.345A3.818 3.818 0 1 0 15.273 14a3.818 3.818 0 0 0 3.818 3.818m0-6.364A2.545 2.545 0 1 1 16.545 14a2.546 2.546 0 0 1 2.545-2.545" style="fill:#292929"/>
        </g>
    </g>
</svg>
