<svg xmlns="http://www.w3.org/2000/svg" width="22.123" height="22.12" viewBox="0 0 22.123 22.12">
  <path id="패스_13636" data-name="패스 13636" d="M-9128.085,1666.078l-4.086-4.086a9.957,9.957,0,0,1-6.329,2.258,10,10,0,0,1-10-10,10,10,0,0,1,10-10,10,10,0,0,1,10,10,9.96,9.96,0,0,1-2.256,6.328l4.086,4.086a1,1,0,0,1,0,1.414,1,1,0,0,1-.707.293A1,1,0,0,1-9128.085,1666.078Zm-18.414-11.829a8.009,8.009,0,0,0,8,8,8.008,8.008,0,0,0,8-8,8.008,8.008,0,0,0-8-8A8.009,8.009,0,0,0-9146.5,1654.249Z" transform="translate(9148.501 -1644.25)"/>
</svg>
