<svg xmlns="http://www.w3.org/2000/svg" width="28" height="28" viewBox="0 0 28 28">
    <defs>
        <clipPath id="9y0tgsv8za">
            <path data-name="Rectangle 3759" style="fill:none" d="M0 0h28v28H0z"/>
        </clipPath>
    </defs>
    <g style="opacity:.8">
        <path data-name="icon area" style="fill:none" d="M0 0h28v28H0z"/>
        <g data-name="Group 2025" style="clip-path:url(#9y0tgsv8za)">
            <path data-name="Path 14075" d="M4.935 15.633 0 28l12.374-4.932a5.739 5.739 0 0 1-.66.038 7.031 7.031 0 0 1-6.779-7.472M2.281 25.721l2.3-5.768a8.5 8.5 0 0 0 1.143 1.619 8.655 8.655 0 0 0 2.322 1.85zm12.992-12.357a.636.636 0 1 0-.637-.636.636.636 0 0 0 .637.636M27.782.216A1.593 1.593 0 0 0 26.767 0c-2.691 0-9.714 1.959-13.472 5.715-.886.886-3.821 3.586-4.5 4.5-2.2.6-5.414 1.81-7.2 3.6a10.021 10.021 0 0 1 4.842 1.705 4.8 4.8 0 0 0 1.454 4.594 5.013 5.013 0 0 0 3.542 1.586 4.45 4.45 0 0 0 1.056-.129 10 10 0 0 1 1.711 4.842c1.789-1.789 3-5 3.6-7.2.914-.681 3.617-3.614 4.5-4.5 4.476-4.473 6.383-13.6 5.483-14.5M16.568 18.878a21.421 21.421 0 0 1-1.758 4.5 13.177 13.177 0 0 0-1.247-2.5 1.277 1.277 0 0 0-1.378-.552 3.147 3.147 0 0 1-.752.092 3.744 3.744 0 0 1-2.641-1.21 3.537 3.537 0 0 1-1.118-3.391 1.271 1.271 0 0 0-.553-1.376 13.212 13.212 0 0 0-2.5-1.247 21.479 21.479 0 0 1 4.505-1.758.886.886 0 0 0 .094-.043l7.39 7.385c-.012.032-.034.059-.044.094m4.83-5.063c-.252.252-.648.666-1.109 1.148-.82.857-2.083 2.176-2.832 2.867l-7.28-7.275c.69-.75 2.01-2.011 2.869-2.83.482-.461.9-.857 1.149-1.108 3.447-3.439 10.069-5.324 12.545-5.338 0 2.061-1.742 8.947-5.339 12.541m-4.215 1.458a.636.636 0 1 0-.637-.636.636.636 0 0 0 .637.636M21 8.909A1.909 1.909 0 1 0 19.094 7 1.91 1.91 0 0 0 21 8.909m0-2.545a.636.636 0 1 1-.633.636.636.636 0 0 1 .633-.636m-7.641 3.818a.636.636 0 1 0 .637.636.636.636 0 0 0-.637-.636" style="fill:#292929"/>
        </g>
    </g>
</svg>
