<svg xmlns="http://www.w3.org/2000/svg" width="28" height="28" viewBox="0 0 28 28">
    <defs>
        <clipPath id="1p4dpgfz8a">
            <path data-name="Rectangle 3757" style="fill:none" d="M0 0h28v28H0z"/>
        </clipPath>
    </defs>
    <g style="opacity:.8">
        <path data-name="icon area" style="fill:none" d="M0 0h28v28H0z"/>
        <g data-name="Group 2021" style="clip-path:url(#1p4dpgfz8a)">
            <path data-name="Path 14073" d="M14 0a14 14 0 1 0 14 14A14 14 0 0 0 14 0m0 26.727A12.727 12.727 0 1 1 26.727 14 12.727 12.727 0 0 1 14 26.727m5.727-21a.582.582 0 0 0-.095.019v-.012l-4.745-.592a.635.635 0 0 0-.249-.051.5.5 0 0 0-.06.012L14.54 5.1v.012a.629.629 0 0 0-.54.615V17.2a3.153 3.153 0 0 0-1.909-.65h-1.273a3.182 3.182 0 1 0 0 6.364h1.273a3.182 3.182 0 0 0 3.182-3.182v-9.49l4.206.526a.635.635 0 0 0 .249.051c.021 0 .039-.01.06-.012h.037v-.012a.627.627 0 0 0 .542-.617V6.364a.636.636 0 0 0-.636-.636m-7.64 15.908h-1.273a1.909 1.909 0 1 1 0-3.818h1.273a1.909 1.909 0 1 1 0 3.818m7-12.151-3.818-.477V6.423l3.818.477z" style="fill:#292929"/>
        </g>
    </g>
</svg>
