<svg xmlns="http://www.w3.org/2000/svg" width="28" height="28" viewBox="0 0 28 28">
    <defs>
        <clipPath id="h58m5bvqpa">
            <path data-name="Rectangle 3777" style="fill:none" d="M0 0h28v28H0z"/>
        </clipPath>
    </defs>
    <g style="opacity:.8">
        <path data-name="icon area" style="fill:none" d="M0 0h28v28H0z"/>
        <g data-name="Group 2044" style="clip-path:url(#h58m5bvqpa)">
            <path data-name="Path 14083" d="M13.294 16.493a2.856 2.856 0 0 0-.742-.414 7.788 7.788 0 0 0-.776-.283v-2.129a.79.79 0 0 1 .683.272 1.237 1.237 0 0 1 .258.788h1.114a2.073 2.073 0 0 0-.171-.869 1.736 1.736 0 0 0-.459-.615 1.943 1.943 0 0 0-.679-.365 2.275 2.275 0 0 0-.746-.12V12.1h-.587v.662a2.186 2.186 0 0 0-.756.131 2.227 2.227 0 0 0-.708.379 1.794 1.794 0 0 0-.489.615 1.917 1.917 0 0 0-.181.853 1.978 1.978 0 0 0 .2.929 1.88 1.88 0 0 0 .512.621 2.911 2.911 0 0 0 .713.4 6.5 6.5 0 0 0 .713.267V19.4a1.015 1.015 0 0 1-.883-.4 1.651 1.651 0 0 1-.284-1.05H8.909a2.579 2.579 0 0 0 .16 1 2.026 2.026 0 0 0 .484.732 2.162 2.162 0 0 0 .752.459 2.5 2.5 0 0 0 .883.171V21h.587v-.69a2.584 2.584 0 0 0 .825-.167 2.147 2.147 0 0 0 .732-.424 1.941 1.941 0 0 0 .493-.7 2.47 2.47 0 0 0 .181-.984 1.963 1.963 0 0 0-.2-.919 1.918 1.918 0 0 0-.517-.626m-2.105-.808a2.326 2.326 0 0 1-.322-.126 1.269 1.269 0 0 1-.351-.2 1 1 0 0 1-.249-.292.828.828 0 0 1-.1-.414.915.915 0 0 1 .288-.762 1.045 1.045 0 0 1 .732-.227zm1.368 3.4a1.248 1.248 0 0 1-.781.318v-2.352a3.447 3.447 0 0 1 .356.141 1.486 1.486 0 0 1 .386.213.967.967 0 0 1 .274.323.99.99 0 0 1 .1.474 1.08 1.08 0 0 1-.337.883m-1.1-13.991a11.455 11.455 0 1 0 11.459 11.454A11.455 11.455 0 0 0 11.455 5.091m0 21.629a10.174 10.174 0 1 1 10.174-10.175A10.175 10.175 0 0 1 11.455 26.72M16.545 0a11.425 11.425 0 0 0-9.053 4.456 12.661 12.661 0 0 1 2.194-.5 10.162 10.162 0 0 1 14.359 14.358 12.611 12.611 0 0 1-.5 2.195 11.445 11.445 0 0 0-7-20.509" style="fill:#292929"/>
        </g>
    </g>
</svg>
