<svg xmlns="http://www.w3.org/2000/svg" width="28" height="28" viewBox="0 0 28 28">
    <defs>
        <clipPath id="ly6pevhvaa">
            <path data-name="Rectangle 3781" style="fill:none" d="M0 0h28v20H0z"/>
        </clipPath>
    </defs>
    <g style="opacity:.8">
        <path data-name="icon area" style="fill:none" d="M0 0h28v28H0z"/>
        <g data-name="Group 2053">
            <g data-name="Group 2052" style="clip-path:url(#ly6pevhvaa)" transform="translate(0 4)">
                <path data-name="Path 14088" d="M28 5.625a.62.62 0 0 0-.365-.56l-.019-.008-.016-.009L14.274.061a.6.6 0 0 0-.543 0L.4 5.048l-.018.006-.02.008a.613.613 0 0 0 0 1.121l.02.007.018.01 1.194.447L.788 12.6a1.246 1.246 0 0 0 .485 2.4 1.262 1.262 0 0 0 1.273-1.25 1.236 1.236 0 0 0-.5-.984l.768-5.658 2.138.8-1.128 8.884h.011a.549.549 0 0 0-.017.081.63.63 0 0 0 .636.625.57.57 0 0 0 .136-.025v.011l4.79-1.177 4.236 3.566.006-.007a.591.591 0 0 0 .722.018l.006.009 4.88-3.593 4.814 1.183v-.012a.612.612 0 0 0 .136.027.63.63 0 0 0 .636-.625.6.6 0 0 0-.02-.113h.009l-1.692-8.877L27.6 6.2l.018-.007.019-.007A.62.62 0 0 0 28 5.625m-4.626 10.408-4.145-1.018v.012a.642.642 0 0 0-.138-.027.626.626 0 0 0-.347.115l-.006-.01-4.712 3.471-4.1-3.451-.006.009A.626.626 0 0 0 9.545 15a.65.65 0 0 0-.136.027v-.012L5.2 16.047l.977-7.682 7.547 2.824a.606.606 0 0 0 .543 0L21.9 8.334zM14 9.959 2.419 5.625 14 1.292l11.582 4.333z" style="fill:#292929"/>
            </g>
        </g>
    </g>
</svg>
