<svg xmlns="http://www.w3.org/2000/svg" width="28" height="28" viewBox="0 0 28 28">
    <defs>
        <clipPath id="y9joiagx3a">
            <path data-name="Rectangle 3778" style="fill:none" d="M0 0h22v28H0z"/>
        </clipPath>
    </defs>
    <g style="opacity:.8">
        <path data-name="icon area" transform="translate(0 .001)" style="fill:none" d="M0 0h28v28H0z"/>
        <g data-name="Group 2046" transform="translate(3)" style="clip-path:url(#y9joiagx3a)">
            <path data-name="Path 14084" d="M20.778 0H1.222A1.248 1.248 0 0 0 0 1.273v25.454A1.248 1.248 0 0 0 1.222 28h19.556A1.249 1.249 0 0 0 22 26.727V1.273A1.249 1.249 0 0 0 20.778 0m0 26.727h-1.222v-2.546a.612.612 0 1 0-1.222 0v2.545h-1.223v-2.545a.612.612 0 1 0-1.222 0v2.545h-1.222v-3.181a.612.612 0 1 0-1.222 0v3.182H11v-3.182a.612.612 0 1 0-1.222 0v3.182H8.556v-2.546a.612.612 0 1 0-1.222 0v2.545H6.111v-3.181a.612.612 0 1 0-1.222 0v3.182H3.667v-2.546a.612.612 0 1 0-1.222 0v2.545H1.222v-5.09h19.556zm0-6.364h-1.222v-3.181a.612.612 0 1 0-1.222 0v3.182h-1.223v-3.182a.612.612 0 1 0-1.222 0v3.182h-2.445v-2.546a.612.612 0 1 0-1.222 0v2.545H11v-2.545a.612.612 0 1 0-1.222 0v2.545H8.556v-3.181a.612.612 0 1 0-1.222 0v3.182H6.111v-2.546a.612.612 0 1 0-1.222 0v2.545H1.222v-5.727h19.556zm0-7h-1.222v-3.181a.612.612 0 1 0-1.222 0v3.182h-1.223V9.545a.612.612 0 1 0-1.222 0v3.818h-1.222v-3.181a.612.612 0 1 0-1.222 0v3.182h-1.223V9.545a.612.612 0 1 0-1.222 0v3.818H8.556v-3.181a.612.612 0 1 0-1.222 0v3.182H6.111v-3.182a.612.612 0 1 0-1.222 0v3.182H3.667V9.545a.612.612 0 1 0-1.222 0v3.818H1.222V7.636h19.556zm0-7h-1.222V3.818a.612.612 0 1 0-1.222 0v2.546h-1.223V3.818a.612.612 0 1 0-1.222 0v2.546h-1.222V3.182a.612.612 0 1 0-1.222 0v3.182h-1.223V3.818a.612.612 0 1 0-1.222 0v2.546H9.778V3.182a.612.612 0 1 0-1.222 0v3.182H6.111V3.818a.612.612 0 1 0-1.222 0v2.546H3.667V3.182a.612.612 0 1 0-1.222 0v3.182H1.222V1.273h19.556z" style="fill:#292929"/>
        </g>
    </g>
</svg>
