<svg xmlns="http://www.w3.org/2000/svg" width="28" height="28" viewBox="0 0 28 28">
    <defs>
        <clipPath id="zlsqf3s3ba">
            <path data-name="Rectangle 3758" style="fill:none" d="M0 0h20v28H0z"/>
        </clipPath>
    </defs>
    <g style="opacity:.8">
        <path data-name="icon area" style="fill:none" d="M0 0h28v28H0z"/>
        <g data-name="Group 2023" transform="translate(4)" style="clip-path:url(#zlsqf3s3ba)">
            <path data-name="Path 14074" d="m19.9 21.951.009-.006-3.182-5.4h1.4a.625.625 0 0 0 .491-1.012l.009-.006-3-4.073h1.25a.633.633 0 0 0 .411-1.107v-.005l-3.417-3.978H15a.631.631 0 0 0 .625-.636.642.642 0 0 0-.183-.45l-5-5.091a.617.617 0 0 0-.884 0l-5 5.091a.642.642 0 0 0-.183.45.631.631 0 0 0 .625.636h1.129L2.71 10.342v.005a.633.633 0 0 0 .411 1.107h1.25l-3 4.073.009.006a.625.625 0 0 0 .491 1.012h1.4l-3.183 5.4.009.006a.623.623 0 0 0 .527.958H7.5v4.455a.631.631 0 0 0 .625.636h3.75a.631.631 0 0 0 .625-.636v-4.455h6.875a.623.623 0 0 0 .527-.958m-8.652 4.776h-2.5v-3.818h2.5zm-9.521-5.091 3.182-5.4-.011-.005a.623.623 0 0 0-.527-.958H3.125l3-4.073-.009-.006a.625.625 0 0 0-.491-1.012H4.5L7.915 6.2A.633.633 0 0 0 7.5 5.091h-.991L10 1.536l3.491 3.555H12.5a.633.633 0 0 0-.411 1.109l3.411 3.982h-1.125a.625.625 0 0 0-.491 1.012l-.009.006 3 4.073h-1.25a.623.623 0 0 0-.527.958l-.009.006 3.182 5.4z" style="fill:#292929"/>
        </g>
    </g>
</svg>
