<svg xmlns="http://www.w3.org/2000/svg" width="28" height="28" viewBox="0 0 28 28">
    <defs>
        <clipPath id="444n2pyzta">
            <path data-name="Rectangle 3756" style="fill:none" d="M0 0h28v20H0z"/>
        </clipPath>
    </defs>
    <g style="opacity:.8">
        <path data-name="icon area" style="fill:none" d="M0 0h28v28H0z"/>
        <g data-name="Group 2019" transform="translate(0 4)" style="clip-path:url(#444n2pyzta)">
            <path data-name="Path 14072" d="M27.892 5.886C27.431 4.274 25.5 3.2 22.741 2.744a11.3 11.3 0 0 1 1.111 1.533c1.536.433 2.575 1.106 2.815 1.946a2.178 2.178 0 0 1-.354 1.692 8.378 8.378 0 0 1-2.143 2.231c0-.049.007-.1.007-.146A10.091 10.091 0 0 0 14 0 10.091 10.091 0 0 0 3.818 10 9.809 9.809 0 0 0 5 14.679c-2.013-.4-3.393-1.165-3.676-2.152a2.181 2.181 0 0 1 .354-1.693 6.3 6.3 0 0 1 .877-1.1 11.119 11.119 0 0 1 .2-1.9C.7 9.488-.347 11.285.1 12.864c.5 1.744 2.719 2.866 5.845 3.241A10.227 10.227 0 0 0 24 11.81c2.863-1.881 4.425-4.056 3.89-5.924M14 18.75a8.952 8.952 0 0 1-6.243-2.515c.217.007.434.012.658.012a30.292 30.292 0 0 0 7.277-.952 29.582 29.582 0 0 0 6.768-2.571A8.892 8.892 0 0 1 14 18.75m8.835-7.689a26.687 26.687 0 0 1-7.457 3.023A29.119 29.119 0 0 1 8.412 15a19.8 19.8 0 0 1-1.787-.088A8.6 8.6 0 0 1 5.091 10 8.829 8.829 0 0 1 14 1.25 8.829 8.829 0 0 1 22.9 10a8.6 8.6 0 0 1-.072 1.061" style="fill:#292929"/>
        </g>
    </g>
</svg>
