<svg xmlns="http://www.w3.org/2000/svg" width="16" height="16" viewBox="0 0 16 16">
    <g data-name="3">
        <path data-name="Rectangle 3975" style="fill:none" d="M0 0h16v16H0z"/>
        <path d="M10.12 15.081a7.335 7.335 0 1 1 3.48-3.005l.992 2.617a.7.7 0 0 1-.9.9l-2.617-.993a7.289 7.289 0 0 1-.955.481zm2.053-2.837a.7.7 0 0 1 .073-.635 5.943 5.943 0 1 0-1.636 1.636.7.7 0 0 1 .635-.073l1.5.567zm-8.34-3.926a.7.7 0 1 1 .7.7.7.7 0 0 1-.7-.7zm2.788 0a.7.7 0 1 1 .7.7.7.7 0 0 1-.7-.7zm2.788 0a.7.7 0 1 1 .7.7.7.7 0 0 1-.7-.7z"/>
    </g>
</svg>
