<svg xmlns="http://www.w3.org/2000/svg" width="25" height="20" viewBox="0 0 25 20">
    <path data-name="Icon awesome-headphones-alt" d="M7.813 13.679h-.782a3 3 0 0 0-3.125 2.863v2.846a3 3 0 0 0 3.125 2.862h.781a1.5 1.5 0 0 0 1.563-1.431V15.11a1.5 1.5 0 0 0-1.562-1.431zm10.156 0h-.781a1.5 1.5 0 0 0-1.563 1.431v5.709a1.5 1.5 0 0 0 1.563 1.431h.781a3 3 0 0 0 3.125-2.862v-2.847a3 3 0 0 0-3.125-2.863zM12.5 2.25A12.229 12.229 0 0 0 0 13.679v5a.75.75 0 0 0 .781.714h.781a.75.75 0 0 0 .781-.714v-5C2.344 8.559 6.9 4.4 12.5 4.4s10.156 4.158 10.156 9.278v5a.75.75 0 0 0 .781.714h.781a.75.75 0 0 0 .782-.713v-5A12.229 12.229 0 0 0 12.5 2.25z" transform="translate(0 -2.25)" style="fill:#d0d0d0"/>
</svg>
