<svg xmlns="http://www.w3.org/2000/svg" width="10" height="7" viewBox="0 0 10 7">
  <defs>
    <style>
      .cls-1 {
        fill: #474c98;
      }
    </style>
  </defs>
  <path id="패스_47" data-name="패스 47" class="cls-1" d="M11.3-37.862a.725.725,0,0,1-.172.386,3.983,3.983,0,0,1-.378.446,2.957,2.957,0,0,0-.378.478.92.92,0,0,0-.172.483q0,.118.249.236t.541.263a1.383,1.383,0,0,1,.541.58,2.167,2.167,0,0,1,.249,1.09,2.447,2.447,0,0,1-.651,1.771,2.26,2.26,0,0,1-1.7.676,2.23,2.23,0,0,1-1.691-.741,2.554,2.554,0,0,1-.694-1.814,4.027,4.027,0,0,1,.3-1.423,6.541,6.541,0,0,1,.771-1.449A4.529,4.529,0,0,1,9.234-38a2.252,2.252,0,0,1,1.284-.451.852.852,0,0,1,.57.183A.53.53,0,0,1,11.3-37.862Zm-5.259,0a.9.9,0,0,1-.278.51q-.278.317-.551.666a1.058,1.058,0,0,0-.273.617q0,.118.249.236t.541.263a1.383,1.383,0,0,1,.541.58,2.167,2.167,0,0,1,.249,1.09,2.447,2.447,0,0,1-.651,1.771,2.26,2.26,0,0,1-1.7.676,2.23,2.23,0,0,1-1.691-.741,2.554,2.554,0,0,1-.694-1.814,4.027,4.027,0,0,1,.3-1.423,6.541,6.541,0,0,1,.771-1.449A4.529,4.529,0,0,1,3.976-38a2.252,2.252,0,0,1,1.284-.451.852.852,0,0,1,.57.183A.53.53,0,0,1,6.045-37.862Z" transform="translate(-1.782 38.452)"/>
</svg>
