<svg xmlns="http://www.w3.org/2000/svg" width="68" height="68" viewBox="0 0 68 68"><g transform="translate(-1380 -892)"><rect width="68" height="68" rx="20" transform="translate(1380 892)" fill="#f7f7f7"/><g transform="translate(200 -130)"><g transform="translate(2 4.061)"><path d="M1214.223,1039.367H1200a.75.75,0,0,1,0-1.5h14.223a.75.75,0,0,1,0,1.5Z" transform="translate(0.962 0)"/><path d="M1210,1053.752a.75.75,0,0,1-.75-.75v-14.385a.75.75,0,0,1,1.5,0V1053A.75.75,0,0,1,1210,1053.752Z" transform="translate(-1.773)"/><path d="M1207.856,1039.367H1200a.75.75,0,0,1,0-1.5h7.856a.75.75,0,0,1,0,1.5Z" transform="translate(13.413 6.824)"/><path d="M1210,1046.928a.75.75,0,0,1-.75-.75v-7.561a.75.75,0,0,1,1.5,0v7.561A.75.75,0,0,1,1210,1046.928Z" transform="translate(7.324 6.824)"/><path d="M1224,1039.367h-24a.75.75,0,0,1,0-1.5h24a.75.75,0,0,1,0,1.5Z" transform="translate(0 20.485)" fill="#5055b1"/><path d="M1215.651,1039.367H1200a.75.75,0,0,1,0-1.5h15.651a.75.75,0,0,1,0,1.5Z" transform="translate(0 23.745)" fill="#5055b1"/><path d="M1221.463,1039.367H1200a.75.75,0,0,1,0-1.5h21.463a.75.75,0,0,1,0,1.5Z" transform="translate(0 27.005)" fill="#5055b1"/></g><rect width="30" height="30" transform="translate(1199 1041)" fill="none"/></g></g></svg>