<svg xmlns="http://www.w3.org/2000/svg" xmlns:xlink="http://www.w3.org/1999/xlink" width="34" height="10" viewBox="0 0 34 10">
    <defs>
        <linearGradient id="tdqfq82kfa" x1=".492" y1=".693" x2=".508" y2=".249" gradientUnits="objectBoundingBox">
            <stop offset=".006" stop-color="#0077a9"/>
            <stop offset=".384" stop-color="#1b8e78"/>
            <stop offset=".795" stop-color="#35a548"/>
            <stop offset="1" stop-color="#40ae36"/>
        </linearGradient>
        <linearGradient id="19l7tatcnb" y1=".5" x2="1" y2=".5" gradientUnits="objectBoundingBox">
            <stop offset=".006" stop-color="#0070a0"/>
            <stop offset=".339" stop-color="#188778"/>
            <stop offset=".78" stop-color="#34a348"/>
            <stop offset="1" stop-color="#40ae36"/>
        </linearGradient>
        <linearGradient id="90t6ayyi4c" x1="-.116" y1="-.055" x2=".677" y2=".683" xlink:href="#tdqfq82kfa"/>
        <linearGradient id="ciglv6d6sd" x1=".672" y1=".087" x2=".196" y2="1.299" xlink:href="#tdqfq82kfa"/>
        <linearGradient id="axsxat2j9e" x1="-.088" y1=".49" x2=".557" y2=".505" gradientUnits="objectBoundingBox">
            <stop offset=".006" stop-color="#0077a9"/>
            <stop offset=".248" stop-color="#0d8291"/>
            <stop offset=".755" stop-color="#2e9f55"/>
            <stop offset="1" stop-color="#40ae36"/>
        </linearGradient>
        <linearGradient id="ixmcgjqipf" y1=".5" x2="1" y2=".5" gradientUnits="objectBoundingBox">
            <stop offset="0" stop-color="#00869b"/>
            <stop offset=".006" stop-color="#0077a9"/>
            <stop offset=".038" stop-color="#037aa2"/>
            <stop offset=".24" stop-color="#198c7b"/>
            <stop offset=".441" stop-color="#2a9b5d"/>
            <stop offset=".637" stop-color="#36a547"/>
            <stop offset=".826" stop-color="#3dab3a"/>
            <stop offset="1" stop-color="#40ae36"/>
        </linearGradient>
        <linearGradient id="x5nvfq443g" x1=".197" y1=".424" x2=".996" y2=".599" xlink:href="#tdqfq82kfa"/>
    </defs>
    <g data-name="그룹 40409">
        <path data-name="패스 23693" d="M172.732 228.174a1.745 1.745 0 0 1 .142-.678 3.441 3.441 0 0 0-.737.5 2.4 2.4 0 0 0-.9 2.284 2.15 2.15 0 0 0 1.231 1.718 10.465 10.465 0 0 0 2.292.675l.545.116a5.026 5.026 0 0 1 1.664.621c.519.342.571.677.566.876-.009.117-.039.471-.768.817-.033.016-.071.026-.106.041a1.682 1.682 0 0 1 .019.253 2.118 2.118 0 0 1-.931 1.654 5.639 5.639 0 0 0 2.487-.705 2.4 2.4 0 0 0 1.351-2.123 2.189 2.189 0 0 0-1.184-1.942 7.774 7.774 0 0 0-2.311-.846 9.138 9.138 0 0 1-2.036-.689 1.822 1.822 0 0 1-.657-.5.736.736 0 0 1-.012-.647 1.991 1.991 0 0 1-.655-1.425z" transform="translate(-170.437 -227.074)" style="fill:url(#tdqfq82kfa)"/>
        <path data-name="패스 23694" d="M174.884 229.209a1.445 1.445 0 0 1 .116-.234 1.42 1.42 0 0 1 1.285-.629 3.087 3.087 0 0 1 1.485.236 4.237 4.237 0 0 1 .928.668 1.231 1.231 0 0 0 .646.365.936.936 0 0 0 .673-.123.8.8 0 0 0 .407-.52.846.846 0 0 0-.166-.761 3.593 3.593 0 0 0-1.49-1.084 6.042 6.042 0 0 0-2.418-.465h-.11a4.08 4.08 0 0 0-1.875.421 1.784 1.784 0 0 0-.142.686 2.024 2.024 0 0 0 .661 1.44z" transform="translate(-171.927 -226.662)" style="fill:url(#19l7tatcnb)"/>
        <path data-name="패스 23695" d="M175.932 241.176a1.723 1.723 0 0 0-.019-.256 3.911 3.911 0 0 1-1.539.294h-.087a3.2 3.2 0 0 1-1.571-.491 2.485 2.485 0 0 1-1.069-1.183l-.063-.1a1.133 1.133 0 0 0-.885-.425 1.3 1.3 0 0 0-.3.036.857.857 0 0 0-.616.389.809.809 0 0 0-.045.683 3.381 3.381 0 0 0 1.554 1.89 5.374 5.374 0 0 0 3.02.871c.239 0 .468-.012.692-.029a2.149 2.149 0 0 0 .928-1.679z" transform="translate(-169.683 -232.878)" style="fill:url(#90t6ayyi4c)"/>
    </g>
    <g data-name="그룹 40412">
        <g data-name="그룹 40410">
            <path data-name="패스 23696" d="M199.657 236.858a12.52 12.52 0 0 1 .138 3.309 1.413 1.413 0 0 0-.462.2 6.134 6.134 0 0 1-1.333.533 5.36 5.36 0 0 1-1.418.23 5.188 5.188 0 0 1-2.505-.685 5.368 5.368 0 0 1-.124-2.943 2.591 2.591 0 0 0 .673 1.013 2.822 2.822 0 0 0 2.054.773 2.994 2.994 0 0 0 2.152-.774 3.507 3.507 0 0 0 .824-1.653" transform="translate(-181.974 -231.634)" style="fill:url(#ciglv6d6sd)"/>
        </g>
        <g data-name="그룹 40411">
            <path data-name="패스 23697" d="M197.6 227.832a5.133 5.133 0 0 0-2.873-.814 4.92 4.92 0 0 0-3.425 1.307 4.611 4.611 0 0 0-.082 6.647 4.675 4.675 0 0 0 .905.674 9.3 9.3 0 0 1-.124-2.9 2.986 2.986 0 0 1-.179-1.052 2.77 2.77 0 0 1 2.906-2.931 3.1 3.1 0 0 1 1.722.465 1.99 1.99 0 0 1 1.15-1.396z" transform="translate(-180.019 -226.838)" style="fill:url(#19l7tatcnb)"/>
            <path data-name="패스 23698" d="M204.187 232.507a3.4 3.4 0 0 1-.027.419 24.788 24.788 0 0 1 .138 3.267.472.472 0 0 1 .077-.007.431.431 0 0 1 .075.008 1.641 1.641 0 0 1 .353.6l.033.08a.845.845 0 0 0 .838.588 1.314 1.314 0 0 0 .213-.018.86.86 0 0 0 .763-1l-.569-4.514a4.614 4.614 0 0 0-1.609-2.979 4.878 4.878 0 0 0-.416-.3 1.991 1.991 0 0 0-1.152 1.392 2.954 2.954 0 0 1 .411.317 2.775 2.775 0 0 1 .872 2.147z" transform="translate(-186.476 -227.644)" style="fill:url(#19l7tatcnb)"/>
        </g>
    </g>
    <g data-name="그룹 40413">
        <path data-name="패스 23699" d="M218.213 231.629a2.774 2.774 0 0 0-.583-2.019 1.772 1.772 0 0 0-1.247-.391 1.741 1.741 0 0 0-1.234.4 2.655 2.655 0 0 0-.6 1.974v4.182a.982.982 0 0 1-1.957 0v-4.182a4.234 4.234 0 0 1 1.271-3.357 3.659 3.659 0 0 1 2.457-.854 4.207 4.207 0 0 1 1.473.239 5.337 5.337 0 0 1 1.348.822l.186.268s-1.1 2.183-.736 2.844-.378.074-.378.074z" transform="translate(-191.786 -227.017)" style="fill:url(#axsxat2j9e)"/>
        <path data-name="패스 23700" d="M230.579 228.8a3.058 3.058 0 0 0-.6-.676 4 4 0 0 0-2.583-.786 3.554 3.554 0 0 0-1.464.309 8.525 8.525 0 0 0-.782.444s-1.294.594-1.443 3.64v4.018a.85.85 0 0 0 .969.861c.728 0 .988-.445.988-.861v-4.163a2.724 2.724 0 0 1 .6-1.994 1.713 1.713 0 0 1 1.214-.4 1.756 1.756 0 0 1 1.25.394 1.386 1.386 0 0 1 .267.348 1.618 1.618 0 0 1 1.584-1.134z" transform="translate(-197.278 -226.998)" style="fill:url(#ixmcgjqipf)"/>
        <path data-name="패스 23701" d="M234.488 237.3a.854.854 0 0 0 .968.872.864.864 0 0 0 .988-.872v-4.194a5.132 5.132 0 0 0-.7-2.84 1.621 1.621 0 0 0-1.59 1.152 3.519 3.519 0 0 1 .332 1.688z" transform="translate(-202.445 -228.557)" style="fill:url(#x5nvfq443g)"/>
    </g>
</svg>
