<svg xmlns="http://www.w3.org/2000/svg" width="335" height="161" viewBox="0 0 335 161">
    <defs>
        <clipPath id="ht20e78k6a">
            <path data-name="사각형 3246" transform="translate(.001)" style="fill:#767675" d="M0 0h97v70H0z"/>
        </clipPath>
    </defs>
    <g transform="translate(14614 -4030)">
        <rect data-name="사각형 3096" width="335" height="161" rx="6" transform="translate(-14614 4030)" style="fill:#f7f7f7"/>
        <g data-name="logo_kyobo" style="opacity:.5">
            <g data-name="그룹 568" transform="translate(-14495 4076)" style="clip-path:url(#ht20e78k6a)">
                <path data-name="패스 13879" d="M56.682 42.576a7.686 7.686 0 0 0-5.606 2.119 9.37 9.37 0 0 0-2.39 6.753 9.368 9.368 0 0 0 2.39 6.752 8.447 8.447 0 0 0 11.235 0 9.465 9.465 0 0 0 2.363-6.752 9.468 9.468 0 0 0-2.363-6.753 7.745 7.745 0 0 0-5.629-2.119m3.245 13.774a4.039 4.039 0 0 1-3.244 1.485 3.982 3.982 0 0 1-3.22-1.485 7.943 7.943 0 0 1-1.266-4.9 8.006 8.006 0 0 1 1.266-4.9 3.965 3.965 0 0 1 3.22-1.459 4.024 4.024 0 0 1 3.244 1.459 8.011 8.011 0 0 1 1.254 4.9 7.947 7.947 0 0 1-1.254 4.9" transform="translate(-13.179 -12.176)" style="fill:#767675"/>
                <path data-name="패스 13880" d="M119.639 44.695a8.525 8.525 0 0 0-11.249 0 9.418 9.418 0 0 0-2.37 6.753 9.418 9.418 0 0 0 2.37 6.752 8.465 8.465 0 0 0 11.249 0A9.455 9.455 0 0 0 122 51.448a9.449 9.449 0 0 0-2.361-6.753m-2.387 11.655a4.265 4.265 0 0 1-6.469 0 8 8 0 0 1-1.259-4.9 8.062 8.062 0 0 1 1.259-4.9 4.317 4.317 0 0 1 6.469 0 8.027 8.027 0 0 1 1.251 4.906 7.957 7.957 0 0 1-1.251 4.9" transform="translate(-32.337 -12.176)" style="fill:#767675"/>
                <path data-name="패스 13881" d="M32.147 60.119a1.61 1.61 0 0 1-.43-1.188v-6.162l5.736-9.631h-3.927c.284.284.312.738-.033 1.279l-3.106 5.391c-2.613-4.74-2.609-4.873-3.082-5.734-.37-.653-.683-.936-1.38-.936H22.83a6.671 6.671 0 0 1 1.028 1.452l4.573 8.138v6.2A1.613 1.613 0 0 1 28 60.119z" transform="translate(-4.539 -12.363)" style="fill:#767675"/>
                <path data-name="패스 13882" d="M80.916 60.119a1.613 1.613 0 0 0 .429-1.188V44.325a1.614 1.614 0 0 0-.429-1.188h5.612c2.695 0 5.042 1.3 5.042 3.829a3.756 3.756 0 0 1-1.733 3.253 4.6 4.6 0 0 1 3.112 4.343 5.285 5.285 0 0 1-2.041 4.181 6.687 6.687 0 0 1-4.379 1.376zm3.715-10.57a5.464 5.464 0 0 0 2.4-.289 1.816 1.816 0 0 0 1.149-1.76 2.037 2.037 0 0 0-2.185-1.92 4.292 4.292 0 0 0-1.363.173v3.795m3.675 7.711a2.692 2.692 0 0 0 1.2-2.491c0-1.861-1.635-2.718-3.207-2.718a11.92 11.92 0 0 0-1.664.1v5.44a5.348 5.348 0 0 0 3.675-.33" transform="translate(-23.949 -12.363)" style="fill:#767675"/>
                <path data-name="패스 13883" d="M.43 58.932A1.612 1.612 0 0 1 0 60.119h4.145a1.612 1.612 0 0 1-.429-1.188V52.3l4.813 6.885a1.623 1.623 0 0 0 1.488.936h3.322a7.916 7.916 0 0 1-1.195-1.453l-5.43-7.711 5.553-7.817H8.18c.212.277.238.625-.159 1.293l-4.305 6.219v-6.327a1.612 1.612 0 0 1 .429-1.187H0a1.612 1.612 0 0 1 .43 1.187z" transform="translate(3.089 -12.363)" style="fill:#767675"/>
                <path data-name="패스 13884" d="M123.676 5.527a3.918 3.918 0 0 0-5.611.3c-1.959 2.065-3.486 2.834-5.3 2.754-2.536-.109-3.787-2.073-5.091-4.552C106.322 1.441 104.243 0 101.649 0c-4.076 0-6.526 3.309-6.526 7 0 5.679 3.986 9.075 6.743 10.507a16.454 16.454 0 0 0 7.113 1.75 21.51 21.51 0 0 1-.979 4.417h4.667a20.982 20.982 0 0 1-.991-4.566c6.834-.889 10.078-4 11.857-6.964a7.5 7.5 0 0 0 1.218-3.859 3.8 3.8 0 0 0-1.077-2.758m-21.989 3.554a2.394 2.394 0 1 1 2.22-2.538 2.391 2.391 0 0 1-2.22 2.538" transform="translate(-28.696 1.989)" style="fill:#767675"/>
                <path data-name="패스 13885" d="M91.461 86.5h-2v5.98h-3.805v1.567h11.831v-1.568h-6.026z" transform="translate(-25.533 -26.789)" style="fill:#767675"/>
                <path data-name="패스 13886" d="M94.615 88.461h1.3c.491-2.51.833-5.643 1.038-7.745.111-1.134.116-1.728-.9-1.728h-8.89v1.567h7.452z" transform="translate(-26.036 -24.29)" style="fill:#767675"/>
                <path data-name="패스 13887" d="M67.79 84.1h8.65v-5.2h-9.889v3.953A1.1 1.1 0 0 0 67.79 84.1m6.423-1.57h-5.435v-2.059h5.436z" transform="translate(-19.149 -24.263)" style="fill:#767675"/>
                <path data-name="패스 13888" d="M69.19 92.2h-2.225v3.08a1.1 1.1 0 0 0 1.235 1.242h8.41v-1.568h-7.42z" transform="translate(-19.287 -28.685)" style="fill:#767675"/>
                <path data-name="패스 13889" d="M64.883 89.894h5.174v2.441h2.225v-2.441h4.71v-1.567H64.883z" transform="translate(-18.591 -27.398)" style="fill:#767675"/>
                <path data-name="패스 13890" d="M30.026 87.134h-1.995v5.556H26.67v-5.556h-2v5.556h-2.7v1.567H34.3V92.69h-4.274z" transform="translate(-4.253 -27.001)" style="fill:#767675"/>
                <path data-name="패스 13891" d="M31.818 88.461h1.3c.489-2.51.834-5.643 1.038-7.745.111-1.134.116-1.728-.9-1.728h-9.275v1.567h7.837z" transform="translate(-4.924 -24.29)" style="fill:#767675"/>
                <path data-name="패스 13892" d="M50.687 91.455h-2.222v2.673h-5.093V95.7H55.7v-1.572h-5.013z" transform="translate(-11.403 -28.438)" style="fill:#767675"/>
                <path data-name="패스 13893" d="M47.207 86.4H53.6a1.1 1.1 0 0 0 1.24-1.244v-6.363h-2.23v2.577h-4.415v-2.577h-2.226v6.363a1.1 1.1 0 0 0 1.238 1.244m5.4-3.465v2.119h-4.412v-2.12z" transform="translate(-12.271 -24.226)" style="fill:#767675"/>
            </g>
        </g>
    </g>
</svg>
