<svg xmlns="http://www.w3.org/2000/svg" width="82.331" height="61.547" viewBox="0 0 82.331 61.547">
    <g data-name="그룹 2051">
        <g data-name="그룹 1000">
            <path data-name="패스 14460" d="M1615.69 345.269v16.1h55.521v-32.478a1.523 1.523 0 0 0-1.521-1.521h-37.41" transform="translate(-1601.674 -314.557)" style="stroke:#282d33;fill:none;stroke-width:2px"/>
            <path data-name="사각형 3383" transform="translate(17.462 16.328)" style="fill:#a9ff88" d="M0 0h48.571v26.933H0z"/>
            <path data-name="패스 14461" d="M1615.7 380.188v4.683a2.05 2.05 0 0 0 1.816 1.9h52.284c.9 0 1.434-.923 1.434-1.821v-4.761" transform="translate(-1601.676 -333.41)" style="stroke:#282d33;fill:none;stroke-width:2px"/>
            <path data-name="패스 14462" d="M1647.845 390.48c-.1 1.164.111 3.755-.14 5.02-.23 1.157-.39 1.2-1 1.538-.347.19-.932.456-1.423.668" transform="translate(-1612.235 -337.083)" style="stroke:#282d33;fill:none;stroke-width:2px"/>
            <path data-name="패스 14463" d="M1670.97 397.749a20.797 20.797 0 0 1-1.439-.675c-.614-.341-.735-.381-.963-1.538-.251-1.266-.045-3.792-.14-4.957" transform="translate(-1620.498 -337.119)" style="stroke:#282d33;fill:none;stroke-width:2px"/>
            <path data-name="선 44" transform="translate(31.519 60.529)" style="stroke:#282d33;fill:none;stroke-width:2px" d="M0 0h20.543"/>
        </g>
        <g data-name="그룹 1001">
            <path data-name="패스 14464" d="M1709.214 341.556h-22.9v13.665h3.626v4.293l4.745-4.293h14.528z" transform="translate(-1626.883 -319.62)" style="fill:#ffd23d"/>
            <path data-name="선 45" transform="translate(63.906 27.134)" style="stroke:#282d33;fill:none;stroke-width:2px" d="M0 0h13.951"/>
            <path data-name="선 46" transform="translate(63.906 30.65)" style="stroke:#282d33;fill:none;stroke-width:2px" d="M0 0h13.951"/>
        </g>
        <g data-name="그룹 1002">
            <path data-name="패스 14465" d="M1620.562 324.431a9.738 9.738 0 1 1-9.738-9.739 9.737 9.737 0 0 1 9.738 9.739z" transform="translate(-1596.461 -310.032)" style="fill:#ffd23d"/>
            <path data-name="패스 14466" d="m1619.291 327.793-3.188 1.842-3.188 1.84v-7.362l3.188 1.839z" transform="translate(-1600.683 -313.395)" style="stroke:#282d33;fill:none;stroke-width:2px"/>
        </g>
        <g data-name="그룹 1008">
            <g data-name="그룹 1006">
                <g data-name="그룹 1005">
                    <g data-name="그룹 1004">
                        <g data-name="그룹 1003">
                            <path data-name="패스 14467" d="M1608.679 309a13.225 13.225 0 0 1 10.085 21.791l1.336 4.1-3.86-1.8a13.221 13.221 0 0 1-20.791-10.85" transform="translate(-1594.449 -308)" style="stroke:#ffd23d;fill:none;stroke-width:2px"/>
                        </g>
                    </g>
                </g>
            </g>
            <g data-name="그룹 1007">
                <path data-name="패스 14468" d="M1595.449 329.082q0-.451.03-.9" transform="translate(-1594.449 -314.848)" style="stroke:#ffd23d;fill:none;stroke-width:2px"/>
                <path data-name="패스 14469" d="M1595.848 319.691a13.24 13.24 0 0 1 11.218-10.511" transform="translate(-1594.591 -308.064)" style="stroke-dasharray:2 2;stroke:#ffd23d;fill:none;stroke-width:2px"/>
                <path data-name="패스 14470" d="M1614.63 309.03q.444-.03.9-.03" transform="translate(-1601.295 -308)" style="stroke:#ffd23d;fill:none;stroke-width:2px"/>
            </g>
        </g>
        <g data-name="그룹 1012">
            <g data-name="그룹 1011">
                <g data-name="그룹 1009">
                    <path data-name="패스 14471" d="M1650.37 339.43h-9.816v18.243h9.816a1.921 1.921 0 0 1 1.921 1.92V341.35a1.921 1.921 0 0 0-1.921-1.92z" transform="translate(-1610.549 -318.862)" style="stroke:#282d33;fill:none;stroke-width:2px"/>
                    <path data-name="패스 14472" d="M1660.806 339.43h9.815v18.243h-9.815a1.92 1.92 0 0 0-1.92 1.92V341.35a1.92 1.92 0 0 1 1.92-1.92z" transform="translate(-1617.092 -318.862)" style="stroke:#282d33;fill:none;stroke-width:2px"/>
                </g>
                <g data-name="그룹 1010">
                    <path data-name="선 47" style="stroke:#282d33;fill:none;stroke-width:2px" d="M0 0h4.569" transform="translate(31.958 23.41)"/>
                    <path data-name="선 48" transform="translate(31.958 25.897)" style="stroke:#282d33;fill:none;stroke-width:2px" d="M0 0h7.695"/>
                    <path data-name="선 49" transform="translate(31.958 28.345)" style="stroke:#282d33;fill:none;stroke-width:2px" d="M0 0h7.695"/>
                    <path data-name="선 50" transform="translate(31.958 30.793)" style="stroke:#282d33;fill:none;stroke-width:2px" d="M0 0h7.695"/>
                    <path data-name="선 51" transform="translate(31.958 33.241)" style="stroke:#282d33;fill:none;stroke-width:2px" d="M0 0h7.695"/>
                    <path data-name="선 52" transform="translate(31.958 35.688)" style="stroke:#282d33;fill:none;stroke-width:2px" d="M0 0h7.695"/>
                    <path data-name="선 53" transform="translate(43.592 25.897)" style="stroke:#282d33;fill:none;stroke-width:2px" d="M0 0h7.695"/>
                    <path data-name="선 54" transform="translate(43.592 28.345)" style="stroke:#282d33;fill:none;stroke-width:2px" d="M0 0h7.695"/>
                    <path data-name="선 55" transform="translate(43.592 30.793)" style="stroke:#282d33;fill:none;stroke-width:2px" d="M0 0h7.695"/>
                    <path data-name="선 56" transform="translate(43.592 33.241)" style="stroke:#282d33;fill:none;stroke-width:2px" d="M0 0h7.695"/>
                    <path data-name="선 57" transform="translate(43.592 35.688)" style="stroke:#282d33;fill:none;stroke-width:2px" d="M0 0h7.695"/>
                </g>
            </g>
        </g>
    </g>
</svg>
