<svg xmlns="http://www.w3.org/2000/svg" width="78.853" height="68.957" viewBox="0 0 78.853 68.957">
    <g data-name="그룹 1995">
        <path data-name="패스 14492" d="M1711.306 725.234v9.777h51.763v-30.279a1.42 1.42 0 0 0-1.418-1.418h-34.877" transform="translate(-1692.756 -679.854)" style="fill:none;stroke:#282d33;stroke-width:2px"/>
        <path data-name="사각형 3387" transform="translate(21.763 26.738)" style="fill:#a9ff88" d="M0 0h45.283v25.11H0z"/>
        <path data-name="패스 14493" d="M1711.314 768.007v4.366a1.911 1.911 0 0 0 1.694 1.769h48.744c.837 0 1.337-.861 1.337-1.7v-4.438" transform="translate(-1692.761 -712.881)" style="fill:none;stroke:#282d33;stroke-width:2px"/>
        <path data-name="패스 14494" d="M1749.94 780.612c-.09 1.086.1 3.5-.13 4.68-.214 1.079-.363 1.116-.937 1.434-.323.178-.869.425-1.327.623" transform="translate(-1711.258 -719.316)" style="fill:none;stroke:#282d33;stroke-width:2px"/>
        <path data-name="패스 14495" d="M1778.271 787.417c-.461-.2-1.015-.451-1.342-.629-.572-.318-.685-.355-.9-1.434-.234-1.18-.042-3.535-.13-4.621" transform="translate(-1725.733 -719.378)" style="fill:none;stroke:#282d33;stroke-width:2px"/>
        <path data-name="선 80" transform="translate(34.868 67.945)" style="fill:none;stroke:#282d33;stroke-width:2px" d="M0 0h19.152"/>
        <path data-name="패스 14496" d="M1697.532 707.714h-6.246a1.279 1.279 0 0 1-1.278-1.28v-37.74a1.278 1.278 0 0 1 1.278-1.279h17.914a1.279 1.279 0 0 1 1.279 1.279V676" transform="translate(-1681.883 -661.527)" style="fill:none;stroke:#282d33;stroke-width:2px"/>
        <path data-name="사각형 3388" transform="translate(10.336 11.325)" style="fill:#ffd23d" d="M0 0h16.044v29.104H0z"/>
        <g data-name="그룹 1027">
            <path data-name="선 81" style="fill:none;stroke:#282d33;stroke-width:2px" d="M0 0h6.838" transform="translate(14.94 8.746)"/>
        </g>
        <path data-name="선 82" transform="translate(17.523 42.85)" style="fill:none;stroke:#282d33;stroke-width:2px" d="M0 0h1.67"/>
        <g data-name="그룹 1031">
            <g data-name="그룹 1030">
                <path data-name="사각형 3389" transform="translate(21.043 19.109)" style="fill:#fff" d="M0 0h41.526v29.315H0z"/>
                <g data-name="그룹 1028">
                    <path data-name="패스 14497" d="M1737.156 690.826h-15.133v28.125h15.133a2.96 2.96 0 0 1 2.961 2.96v-28.125a2.961 2.961 0 0 0-2.961-2.96z" transform="translate(-1698.228 -673.479)" style="fill:none;stroke:#282d33;stroke-width:2px"/>
                    <path data-name="패스 14498" d="M1762.113 690.826h15.132v28.125h-15.132a2.96 2.96 0 0 0-2.96 2.96v-28.125a2.961 2.961 0 0 1 2.96-2.96z" transform="translate(-1717.184 -673.479)" style="fill:none;stroke:#282d33;stroke-width:2px"/>
                </g>
                <g data-name="그룹 1029">
                    <path data-name="선 83" style="fill:none;stroke:#282d33;stroke-width:2px" d="M0 0h7.044" transform="translate(26.806 21.729)"/>
                    <path data-name="선 84" transform="translate(26.806 25.564)" style="fill:none;stroke:#282d33;stroke-width:2px" d="M0 0h11.864"/>
                    <path data-name="선 85" transform="translate(26.806 29.337)" style="fill:none;stroke:#282d33;stroke-width:2px" d="M0 0h11.864"/>
                    <path data-name="선 86" transform="translate(26.806 33.112)" style="fill:none;stroke:#282d33;stroke-width:2px" d="M0 0h11.864"/>
                    <path data-name="선 87" transform="translate(26.806 36.885)" style="fill:none;stroke:#282d33;stroke-width:2px" d="M0 0h11.864"/>
                    <path data-name="선 88" transform="translate(26.806 40.658)" style="fill:none;stroke:#282d33;stroke-width:2px" d="M0 0h11.864"/>
                    <path data-name="선 89" transform="translate(44.742 25.564)" style="fill:none;stroke:#282d33;stroke-width:2px" d="M0 0h11.863"/>
                    <path data-name="선 90" transform="translate(44.742 29.337)" style="fill:none;stroke:#282d33;stroke-width:2px" d="M0 0h11.863"/>
                    <path data-name="선 91" transform="translate(44.742 33.112)" style="fill:none;stroke:#282d33;stroke-width:2px" d="M0 0h11.863"/>
                    <path data-name="선 92" transform="translate(44.742 36.885)" style="fill:none;stroke:#282d33;stroke-width:2px" d="M0 0h11.863"/>
                    <path data-name="선 93" transform="translate(44.742 40.658)" style="fill:none;stroke:#282d33;stroke-width:2px" d="M0 0h11.863"/>
                </g>
            </g>
        </g>
        <path data-name="사각형 3390" transform="translate(12.308 13.225)" style="fill:#fff" d="M0 0h5.846v5.846H0z"/>
        <g data-name="그룹 1032">
            <path data-name="선 94" transform="translate(51.207 3.559)" style="fill:none;stroke:#282d33;stroke-width:2px" d="M0 0v2.034"/>
            <path data-name="선 95" transform="translate(47.505 5.864)" style="fill:none;stroke:#282d33;stroke-width:2px" d="m0 0 1.762 1.017"/>
            <path data-name="선 96" transform="translate(47.651 9.206)" style="fill:none;stroke:#282d33;stroke-width:2px" d="M0 1.017 1.762 0"/>
            <path data-name="선 97" transform="translate(51.498 10.242)" style="fill:none;stroke:#282d33;stroke-width:2px" d="M0 2.034V0"/>
            <path data-name="선 98" transform="translate(53.439 8.953)" style="fill:none;stroke:#282d33;stroke-width:2px" d="M1.762 1.017 0 0"/>
            <path data-name="선 99" transform="translate(53.292 5.612)" style="fill:none;stroke:#282d33;stroke-width:2px" d="M1.762 0 0 1.017"/>
        </g>
        <g data-name="그룹 1034">
            <g data-name="그룹 1033">
                <path data-name="선 100" transform="translate(3.818 47.809)" style="fill:none;stroke:#282d33;stroke-width:2px" d="M0 1.914 1.913 0"/>
                <path data-name="선 101" transform="translate(8.661 50.646)" style="fill:none;stroke:#282d33;stroke-width:2px" d="M0 2.452 1.143 0"/>
                <path data-name="선 102" style="fill:none;stroke:#282d33;stroke-width:2px" d="M0 1.143 2.453 0" transform="translate(.422 43.751)"/>
                <path data-name="선 103" transform="translate(3.818 47.809)" style="fill:none;stroke:#282d33;stroke-width:2px" d="M0 1.914 1.914 0"/>
            </g>
        </g>
        <g data-name="그룹 1036">
            <path data-name="패스 14499" d="M1817.756 657.429h-14.1v13.859h3.192v2.4l3.457-2.4h7.449z" transform="translate(-1739.904 -656.429)" style="fill:none;stroke:#282d33;stroke-width:2px"/>
            <g data-name="그룹 1035">
                <path data-name="패스 14500" d="m1817.086 668.921.218-.218a2.031 2.031 0 0 0 0-2.872l-.029-.03a2.031 2.031 0 0 0-2.872 0l-.218.219-.218-.219a2.03 2.03 0 0 0-2.872 0l-.03.03a2.033 2.033 0 0 0 0 2.872l.218.218 2.9 2.9z" transform="translate(-1743.382 -660.399)" style="fill:#ffd23d"/>
            </g>
        </g>
    </g>
</svg>
