<svg xmlns="http://www.w3.org/2000/svg" width="91.512" height="79.917" viewBox="0 0 91.512 79.917">
    <g data-name="그룹 1995">
        <path data-name="패스 14492" d="M1711.306 728.818v11.375h60.225v-35.229a1.652 1.652 0 0 0-1.65-1.649H1729.3" transform="translate(-1689.793 -676.182)" style="fill:none;stroke:#282d33;stroke-width:2px"/>
        <path data-name="사각형 3387" transform="translate(25.252 30.945)" style="fill:#a9ff88" d="M0 0h52.686v29.215H0z"/>
        <path data-name="패스 14493" d="M1711.314 768.007v5.08a2.224 2.224 0 0 0 1.971 2.059H1770c.974 0 1.556-1 1.556-1.975v-5.164" transform="translate(-1689.796 -704.032)" style="fill:none;stroke:#282d33;stroke-width:2px"/>
        <path data-name="패스 14494" d="M1750.331 780.612c-.1 1.263.121 4.073-.152 5.446-.249 1.255-.422 1.3-1.089 1.668-.376.207-1.011.494-1.544.725" transform="translate(-1705.394 -709.458)" style="fill:none;stroke:#282d33;stroke-width:2px"/>
        <path data-name="패스 14495" d="M1778.658 788.51a22.904 22.904 0 0 1-1.562-.732c-.665-.37-.8-.413-1.044-1.668-.272-1.372-.049-4.113-.151-5.377" transform="translate(-1717.6 -709.51)" style="fill:none;stroke:#282d33;stroke-width:2px"/>
        <path data-name="선 80" transform="translate(40.499 78.89)" style="fill:none;stroke:#282d33;stroke-width:2px" d="M0 0h22.283"/>
        <path data-name="패스 14496" d="M1698.763 714.3h-7.263a1.488 1.488 0 0 1-1.488-1.489V668.9a1.487 1.487 0 0 1 1.488-1.488h20.84a1.488 1.488 0 0 1 1.488 1.488v8.506" transform="translate(-1680.624 -660.728)" style="fill:none;stroke:#282d33;stroke-width:2px"/>
        <path data-name="사각형 3388" transform="translate(11.957 13.013)" style="fill:#ffd23d" d="M0 0h18.667v33.863H0z"/>
        <g data-name="그룹 1027">
            <path data-name="선 81" style="fill:none;stroke:#282d33;stroke-width:2px" d="M0 0h7.956" transform="translate(17.313 10.012)"/>
        </g>
        <path data-name="선 82" transform="translate(20.319 49.692)" style="fill:none;stroke:#282d33;stroke-width:2px" d="M0 0h1.943"/>
        <g data-name="그룹 1031">
            <g data-name="그룹 1030">
                <path data-name="사각형 3389" transform="translate(24.414 22.07)" style="fill:#fff" d="M0 0h48.315v34.108H0z"/>
                <g data-name="그룹 1028">
                    <path data-name="패스 14497" d="M1739.63 690.826h-17.607v32.724h17.607a3.444 3.444 0 0 1 3.445 3.444V694.27a3.445 3.445 0 0 0-3.445-3.444z" transform="translate(-1694.407 -670.806)" style="fill:none;stroke:#282d33;stroke-width:2px"/>
                    <path data-name="패스 14498" d="M1762.6 690.826h17.6v32.724h-17.6a3.444 3.444 0 0 0-3.444 3.444V694.27a3.445 3.445 0 0 1 3.444-3.444z" transform="translate(-1710.391 -670.806)" style="fill:none;stroke:#282d33;stroke-width:2px"/>
                </g>
                <g data-name="그룹 1029">
                    <path data-name="선 83" style="fill:none;stroke:#282d33;stroke-width:2px" d="M0 0h8.196" transform="translate(31.119 25.118)"/>
                    <path data-name="선 84" transform="translate(31.119 29.58)" style="fill:none;stroke:#282d33;stroke-width:2px" d="M0 0h13.803"/>
                    <path data-name="선 85" transform="translate(31.119 33.97)" style="fill:none;stroke:#282d33;stroke-width:2px" d="M0 0h13.803"/>
                    <path data-name="선 86" transform="translate(31.119 38.362)" style="fill:none;stroke:#282d33;stroke-width:2px" d="M0 0h13.803"/>
                    <path data-name="선 87" transform="translate(31.119 42.752)" style="fill:none;stroke:#282d33;stroke-width:2px" d="M0 0h13.803"/>
                    <path data-name="선 88" transform="translate(31.119 47.142)" style="fill:none;stroke:#282d33;stroke-width:2px" d="M0 0h13.803"/>
                    <path data-name="선 89" transform="translate(51.988 29.58)" style="fill:none;stroke:#282d33;stroke-width:2px" d="M0 0h13.803"/>
                    <path data-name="선 90" transform="translate(51.988 33.97)" style="fill:none;stroke:#282d33;stroke-width:2px" d="M0 0h13.803"/>
                    <path data-name="선 91" transform="translate(51.988 38.362)" style="fill:none;stroke:#282d33;stroke-width:2px" d="M0 0h13.803"/>
                    <path data-name="선 92" transform="translate(51.988 42.752)" style="fill:none;stroke:#282d33;stroke-width:2px" d="M0 0h13.803"/>
                    <path data-name="선 93" transform="translate(51.988 47.142)" style="fill:none;stroke:#282d33;stroke-width:2px" d="M0 0h13.803"/>
                </g>
            </g>
        </g>
        <path data-name="사각형 3390" transform="translate(14.252 15.223)" style="fill:#fff" d="M0 0h6.802v6.802H0z"/>
        <g data-name="그룹 1032">
            <path data-name="선 94" transform="translate(59.51 3.977)" style="fill:none;stroke:#282d33;stroke-width:2px" d="M0 0v2.366"/>
            <path data-name="선 95" transform="translate(55.203 6.659)" style="fill:none;stroke:#282d33;stroke-width:2px" d="m0 0 2.05 1.184"/>
            <path data-name="선 96" transform="translate(55.372 10.547)" style="fill:none;stroke:#282d33;stroke-width:2px" d="M0 1.184 2.05 0"/>
            <path data-name="선 97" transform="translate(59.849 11.752)" style="fill:none;stroke:#282d33;stroke-width:2px" d="M0 2.367V0"/>
            <path data-name="선 98" transform="translate(62.107 10.253)" style="fill:none;stroke:#282d33;stroke-width:2px" d="M2.05 1.183 0 0"/>
            <path data-name="선 99" transform="translate(61.936 6.366)" style="fill:none;stroke:#282d33;stroke-width:2px" d="M2.05 0 0 1.184"/>
        </g>
        <g data-name="그룹 1034">
            <g data-name="그룹 1033">
                <path data-name="선 100" transform="translate(4.373 55.462)" style="fill:none;stroke:#282d33;stroke-width:2px" d="M0 2.227 2.226 0"/>
                <path data-name="선 101" transform="translate(10.008 58.763)" style="fill:none;stroke:#282d33;stroke-width:2px" d="M0 2.853 1.33 0"/>
                <path data-name="선 102" style="fill:none;stroke:#282d33;stroke-width:2px" d="M0 1.33 2.854 0" transform="translate(.422 50.74)"/>
                <path data-name="선 103" transform="translate(4.373 55.462)" style="fill:none;stroke:#282d33;stroke-width:2px" d="M0 2.227 2.227 0"/>
            </g>
        </g>
        <g data-name="그룹 1036">
            <path data-name="패스 14499" d="M1820.061 657.429h-16.4v16.125h3.714v2.795l4.022-2.795h8.666z" transform="translate(-1729.55 -656.429)" style="fill:none;stroke:#282d33;stroke-width:2px"/>
            <g data-name="그룹 1035">
                <path data-name="패스 14500" d="m1818.168 669.528.254-.253a2.363 2.363 0 0 0 0-3.342l-.034-.035a2.363 2.363 0 0 0-3.342 0l-.254.255-.253-.255a2.362 2.362 0 0 0-3.341 0l-.035.035a2.364 2.364 0 0 0 0 3.342l.254.253 3.375 3.376z" transform="translate(-1732.483 -659.777)" style="fill:#ffd23d"/>
            </g>
        </g>
    </g>
</svg>
