<svg xmlns="http://www.w3.org/2000/svg" width="84.731" height="68.584" viewBox="0 0 84.731 68.584">
    <g data-name="그룹 1992">
        <g data-name="그룹 1903">
            <path data-name="패스 14533" d="M1696.471 165.239v1.153h-1.153" transform="translate(-1612.74 -127.116)" style="fill:none;stroke:#282d33;stroke-width:2px"/>
            <path data-name="선 155" transform="translate(11.146 39.275)" style="stroke-dasharray:4.063 4.063;fill:none;stroke:#282d33;stroke-width:2px" d="M69.091 0H0"/>
            <path data-name="패스 14534" d="M1568.5 166.391h-1.152v-1.153" transform="translate(-1558.53 -127.116)" style="fill:none;stroke:#282d33;stroke-width:2px"/>
            <path data-name="선 156" transform="translate(8.822 3.352)" style="stroke-dasharray:4.16 4.16;fill:none;stroke:#282d33;stroke-width:2px" d="M0 32.373V0"/>
            <path data-name="패스 14535" d="M1567.352 101.984v-1.153h1.152" transform="translate(-1558.53 -99.831)" style="fill:none;stroke:#282d33;stroke-width:2px"/>
            <path data-name="선 157" transform="translate(12.317 1)" style="stroke-dasharray:4.063 4.063;fill:none;stroke:#282d33;stroke-width:2px" d="M0 0h69.091"/>
            <path data-name="패스 14536" d="M1695.318 100.831h1.153v1.153" transform="translate(-1612.74 -99.831)" style="fill:none;stroke:#282d33;stroke-width:2px"/>
            <path data-name="선 158" transform="translate(83.731 4.551)" style="stroke-dasharray:4.16 4.16;fill:none;stroke:#282d33;stroke-width:2px" d="M0 0v32.373"/>
        </g>
        <path data-name="사각형 3425" transform="translate(3.34 8.661)" style="fill:#a9ff88" d="M0 0h74.909v38.275H0z"/>
        <g data-name="그룹 1904">
            <path data-name="패스 14537" d="M1625.226 141.421V111.7a1.961 1.961 0 0 0-1.958-1.957h-67.53a1.96 1.96 0 0 0-1.957 1.957v41.791h71.444v-4.385" transform="translate(-1552.782 -103.607)" style="fill:none;stroke:#282d33;stroke-width:2px"/>
            <path data-name="패스 14538" d="M1553.792 185.572v6.028a2.638 2.638 0 0 0 2.337 2.443h67.277c1.155 0 1.846-1.188 1.846-2.344v-6.126" transform="translate(-1552.786 -135.73)" style="fill:none;stroke:#282d33;stroke-width:2px"/>
            <path data-name="패스 14539" d="M1599.565 200.348c-.124 1.5.143 4.831-.18 6.46-.3 1.489-.5 1.539-1.292 1.979-.447.245-1.2.586-1.832.859" transform="translate(-1570.777 -141.989)" style="fill:none;stroke:#282d33;stroke-width:2px"/>
            <path data-name="패스 14540" d="M1632.768 209.716c-.636-.276-1.4-.623-1.852-.869-.789-.439-.945-.489-1.239-1.979-.323-1.629-.058-4.879-.18-6.378" transform="translate(-1584.857 -142.05)" style="fill:none;stroke:#282d33;stroke-width:2px"/>
            <path data-name="선 159" transform="translate(23.523 67.536)" style="fill:none;stroke:#282d33;stroke-width:2px" d="M0 0h26.434"/>
        </g>
        <path data-name="선 160" transform="translate(72.445 35.828)" style="fill:none;stroke:#282d33;stroke-width:2px" d="M0 0v10.802"/>
        <path data-name="패스 14541" d="M1650.926 136.486v-3.008l-2.674-.222a8.151 8.151 0 0 0-1.054-2.731l1.785-2.11-2.126-2.127-2.047 1.732a8.177 8.177 0 0 0-2.677-1.184l-.23-2.756h-3.003l-.223 2.673a8.149 8.149 0 0 0-2.731 1.055l-2.111-1.786-2.127 2.126 1.733 2.047a8.127 8.127 0 0 0-1.184 2.677l-2.757.229v3.008l2.674.222a8.138 8.138 0 0 0 1.054 2.731l-1.786 2.11 2.127 2.127 2.048-1.733a8.106 8.106 0 0 0 2.677 1.184l.229 2.756h3.008l.223-2.673a8.131 8.131 0 0 0 2.73-1.055l2.11 1.786 2.127-2.127-1.733-2.047a8.144 8.144 0 0 0 1.185-2.677z" transform="translate(-1584.856 -109.68)" style="fill:#ffd23d"/>
        <g data-name="그룹 1905">
            <path data-name="선 161" transform="translate(14.08 13.524)" style="fill:none;stroke:#282d33;stroke-width:2px" d="M0 0v8.289"/>
            <path data-name="선 162" transform="translate(9.935 17.668)" style="fill:none;stroke:#282d33;stroke-width:2px" d="M8.288 0H0"/>
        </g>
        <g data-name="그룹 1906">
            <path data-name="선 163" transform="translate(19.164 22.98)" style="stroke-linejoin:round;fill:none;stroke:#282d33;stroke-width:2px" d="M0 0h10.655"/>
            <path data-name="선 164" transform="translate(19.164 29.903)" style="stroke-linejoin:round;fill:none;stroke:#282d33;stroke-width:2px" d="M0 0h17.947"/>
            <path data-name="선 165" transform="translate(19.164 34.985)" style="stroke-linejoin:round;fill:none;stroke:#282d33;stroke-width:2px" d="M0 0h17.947"/>
            <path data-name="선 166" transform="translate(19.164 40.068)" style="stroke-linejoin:round;fill:none;stroke:#282d33;stroke-width:2px" d="M0 0h12.817"/>
        </g>
        <g data-name="그룹 1907">
            <path data-name="패스 14542" d="M1647.847 136.486v-3.008l-2.673-.222a8.149 8.149 0 0 0-1.055-2.731l1.786-2.11-2.127-2.127-2.047 1.732a8.158 8.158 0 0 0-2.677-1.184l-.229-2.756h-3.007l-.223 2.673a8.145 8.145 0 0 0-2.731 1.055l-2.11-1.786-2.127 2.126 1.733 2.047a8.121 8.121 0 0 0-1.184 2.677l-2.756.229v3.008l2.674.222a8.134 8.134 0 0 0 1.053 2.731l-1.786 2.11 2.126 2.127 2.048-1.733a8.11 8.11 0 0 0 2.677 1.184l.23 2.756h3.007l.223-2.673a8.131 8.131 0 0 0 2.731-1.055l2.109 1.786 2.128-2.127-1.732-2.047a8.142 8.142 0 0 0 1.184-2.677z" transform="translate(-1583.552 -109.681)" style="fill:none;stroke:#282d33;stroke-width:2px"/>
            <path data-name="패스 14543" d="M1645.891 140.218a3.335 3.335 0 1 1-3.335-3.336 3.335 3.335 0 0 1 3.335 3.336z" transform="translate(-1588.975 -115.104)" style="fill:none;stroke:#282d33;stroke-width:2px"/>
        </g>
    </g>
</svg>
