<svg xmlns="http://www.w3.org/2000/svg" width="46" height="58" viewBox="0 0 46 58">
    <g data-name="그룹 1890">
        <path data-name="패스 14512" d="M1339 413a3.161 3.161 0 1 1-3.161 3.161A3.161 3.161 0 0 1 1339 413" transform="translate(-1296.411 -385.605)" style="fill:#519f21"/>
        <path data-name="패스 14513" d="M1303.993 385.354h28.267a7.848 7.848 0 0 1 7.855 7.84v15.062a1.571 1.571 0 0 1-3.14 0v-15.062a4.707 4.707 0 0 0-4.707-4.706h-28.275a4.707 4.707 0 0 0-4.715 4.7v42.329a4.706 4.706 0 0 0 4.71 4.7h22.3a1.568 1.568 0 1 1 .089 3.135h-22.389a7.848 7.848 0 0 1-7.856-7.841v-42.317a7.848 7.848 0 0 1 7.856-7.84" style="fill:#040405" transform="translate(-1296.137 -385.354)"/>
        <path data-name="패스 14514" d="M1304.434 396.5h11.066a1.581 1.581 0 0 1 .09 3.161h-11.153a1.581 1.581 0 0 1 0-3.161" transform="translate(-1296.137 -385.449)" style="fill:#040405"/>
        <path data-name="패스 14515" d="M1304.434 410.2h11.066a1.581 1.581 0 0 1 .09 3.16h-11.153a1.581 1.581 0 1 1-.089-3.16h.089" transform="translate(-1296.137 -385.566)" style="fill:#040405"/>
        <path data-name="패스 14516" d="M1304.434 417.043h18.966a1.581 1.581 0 1 1 .09 3.161h-19.053a1.581 1.581 0 0 1-.089-3.161h.089" transform="translate(-1296.137 -385.625)" style="fill:#040405"/>
        <path data-name="패스 14517" d="M1304.434 403.346h26.866a1.581 1.581 0 0 1 .09 3.16h-26.955a1.581 1.581 0 0 1 0-3.16" transform="translate(-1296.137 -385.508)" style="fill:#040405"/>
        <path data-name="패스 14518" d="M1321.818 396.5h3.16a1.581 1.581 0 0 1 .09 3.161h-3.25a1.581 1.581 0 0 1 0-3.161" transform="translate(-1296.303 -385.449)" style="fill:#040405"/>
        <path data-name="패스 14527" d="M43.628 45.306v-1.765c0-3.176-2.476-6.868-5.67-6.868h-3.32c-3.194 0-5.671 3.692-5.671 6.868v1.765a2.813 2.813 0 0 0-2.371 2.635v2.483a2.92 2.92 0 0 0 3.114 2.707h.179l.4-.089a.95.95 0 0 0 .078-.042l.2-.156.223-.391a.617.617 0 0 0 .02-.084l.016-8.828c0-2.209 1.8-5.013 3.816-5.013h3.32c2.019 0 3.815 2.8 3.815 5.013v8.662a.928.928 0 0 0 .927.928h.238a2.9 2.9 0 0 0 3.062-2.707v-2.483a2.812 2.812 0 0 0-2.376-2.635zm0 5.811v-3.869a.827.827 0 0 1 .517.693v2.483a.827.827 0 0 1-.517.693zm-14.661-3.869v3.869a.829.829 0 0 1-.516-.693v-2.483a.827.827 0 0 1 .516-.693z"/>
    </g>
</svg>
