<svg xmlns="http://www.w3.org/2000/svg" width="75.871" height="68.422" viewBox="0 0 75.871 68.422">
    <g data-name="그룹 2009">
        <g data-name="그룹 1997">
            <path data-name="선 196" transform="translate(69.983 22.283)" style="stroke:#282d33;stroke-width:2px;fill:none" d="M0 0v2.745"/>
            <path data-name="선 197" transform="translate(64.987 25.394)" style="stroke:#282d33;stroke-width:2px;fill:none" d="m0 0 2.378 1.373"/>
            <path data-name="선 198" transform="translate(65.183 29.903)" style="stroke:#282d33;stroke-width:2px;fill:none" d="M0 1.373 2.378 0"/>
            <path data-name="선 199" transform="translate(70.375 31.301)" style="stroke:#282d33;stroke-width:2px;fill:none" d="M0 2.745V0"/>
            <path data-name="선 200" transform="translate(72.994 29.563)" style="stroke:#282d33;stroke-width:2px;fill:none" d="M2.377 1.373 0 0"/>
            <path data-name="선 201" transform="translate(72.797 25.053)" style="stroke:#282d33;stroke-width:2px;fill:none" d="M2.378 0 0 1.373"/>
        </g>
        <g data-name="그룹 1999">
            <g data-name="그룹 1998">
                <path data-name="선 202" transform="translate(63.057 3.286)" style="stroke:#282d33;stroke-width:2px;fill:none" d="M2.582 0 0 2.583"/>
                <path data-name="선 203" style="stroke:#282d33;stroke-width:2px;fill:none" d="M1.543 0 0 3.309" transform="translate(57.561 .422)"/>
                <path data-name="선 204" transform="translate(65.221 9.803)" style="stroke:#282d33;stroke-width:2px;fill:none" d="M3.311 0 0 1.543"/>
                <path data-name="선 205" transform="translate(63.056 3.286)" style="stroke:#282d33;stroke-width:2px;fill:none" d="M2.583 0 0 2.583"/>
            </g>
        </g>
        <path data-name="패스 14571" d="M1520.361 384.973h19.023v18.7h-4.307v3.241l-4.665-3.241h-10.052z" transform="translate(-1519.361 -382.016)" style="stroke:#282d33;stroke-width:2px;fill:none"/>
        <g data-name="그룹 2000">
            <path data-name="패스 14572" d="m1537.274 400.274.294-.294a2.739 2.739 0 0 0 0-3.875l-.039-.041a2.742 2.742 0 0 0-3.876 0l-.295.3-.294-.3a2.741 2.741 0 0 0-3.875 0l-.041.041a2.741 2.741 0 0 0 0 3.875l.294.294 3.915 3.916z" transform="translate(-1522.846 -386.506)" style="stroke:#282d33;stroke-width:2px;fill:none"/>
        </g>
        <g data-name="그룹 2001">
            <path data-name="패스 14573" d="M1613.821 462.1h.845a2.773 2.773 0 0 0 2.774-2.773v-2.774h.973v-.012a2.769 2.769 0 0 0 2.655-2.761v-2.775h-6.168V451a2.768 2.768 0 0 0 2.656-2.762v-2.773h-3.737" transform="translate(-1560.154 -408.418)" style="fill:#fff;stroke:#282d33;stroke-width:2px"/>
            <path data-name="선 206" transform="translate(53.667 48.131)" style="stroke:#282d33;stroke-width:2px;fill:none" d="M3.618 0H0"/>
            <path data-name="선 207" transform="translate(53.667 42.59)" style="stroke:#282d33;stroke-width:2px;fill:none" d="M1.081 0H0"/>
        </g>
        <path data-name="사각형 3439" transform="translate(28.513 20.379)" style="fill:#a9ff88" d="M0 0h21.651v39.275H0z"/>
        <g data-name="그룹 2002">
            <path data-name="선 208" style="stroke:#282d33;stroke-width:2px;fill:none" d="M0 0h9.228" transform="translate(34.725 16.898)"/>
        </g>
        <path data-name="선 209" transform="translate(38.212 62.92)" style="stroke:#282d33;stroke-width:2px;fill:none" d="M0 0h2.254"/>
        <path data-name="패스 14574" d="M1566.715 402.869h-1.1a1.727 1.727 0 0 0-1.726 1.727v50.928a1.725 1.725 0 0 0 1.726 1.726h24.17c.953 0 1.726-.772 1.726-2.289v-31.28" transform="translate(-1538.359 -389.827)" style="stroke:#282d33;stroke-width:2px;fill:none"/>
        <g data-name="그룹 2003">
            <path data-name="선 210" style="stroke:#282d33;stroke-width:2px;fill:none" d="M0 0h10.711" transform="translate(30.281 40.987)"/>
            <path data-name="선 211" transform="translate(30.281 43.736)" style="stroke:#282d33;stroke-width:2px;fill:none" d="M0 0h14.658"/>
            <path data-name="선 212" transform="translate(30.281 46.441)" style="stroke:#282d33;stroke-width:2px;fill:none" d="M0 0h18.04"/>
            <path data-name="선 213" transform="translate(30.281 49.147)" style="stroke:#282d33;stroke-width:2px;fill:none" d="M0 0h12.404"/>
            <path data-name="선 214" transform="translate(30.281 51.852)" style="stroke:#282d33;stroke-width:2px;fill:none" d="M0 0h18.04"/>
            <path data-name="선 215" transform="translate(30.281 54.557)" style="stroke:#282d33;stroke-width:2px;fill:none" d="M0 0h18.04"/>
        </g>
        <g data-name="그룹 2004">
            <path data-name="선 216" style="stroke:#282d33;stroke-width:2px;fill:none" d="M0 0h13.672" transform="translate(30.281 33.353)"/>
        </g>
        <path data-name="패스 14575" d="M1549.692 463.142h-3.884s-5.993-1.108-8.555-3.906-4.965-5.6-4.218-11.507a12.359 12.359 0 0 1 7.153-9.554c1.655-.633 8.649-.9 8.649-.9l11.689.052s.216 3.96-.478 4.54-1.388 1.108-3.737 1.267-6.94.158-6.94.158z" transform="translate(-1524.832 -404.845)" style="fill:#fff"/>
        <path data-name="패스 14576" d="M1542.29 449.913a6.559 6.559 0 0 0 6.558-6.558h8.935a2.774 2.774 0 0 0 2.745-2.469l.017-3.076h-14.972a12.632 12.632 0 0 0-12.633 12.632 12.633 12.633 0 0 0 12.633 12.632h4.256" transform="translate(-1524.852 -405.078)" style="fill:#fff;stroke:#282d33;stroke-width:2px"/>
        <g data-name="그룹 2008">
            <g data-name="그룹 2007">
                <path data-name="사각형 3440" transform="translate(31.2 10.36)" style="fill:#ffd23d" d="M0 0h29.769v21.016H0z"/>
                <g data-name="그룹 2005">
                    <path data-name="패스 14577" d="M1588.3 395.869h-10.848v20.163h10.848a2.122 2.122 0 0 1 2.123 2.122v-20.163a2.123 2.123 0 0 0-2.123-2.122z" transform="translate(-1544.281 -386.772)" style="stroke:#282d33;stroke-width:2px;fill:none"/>
                    <path data-name="패스 14578" d="M1602.7 395.869h10.848v20.163H1602.7a2.122 2.122 0 0 0-2.122 2.122v-20.163a2.122 2.122 0 0 1 2.122-2.122z" transform="translate(-1554.373 -386.772)" style="stroke:#282d33;stroke-width:2px;fill:none"/>
                </g>
                <g data-name="그룹 2006">
                    <path data-name="선 217" style="stroke:#282d33;stroke-width:2px;fill:none" d="M0 0h5.05" transform="translate(35.331 12.238)"/>
                    <path data-name="선 218" transform="translate(35.331 14.987)" style="stroke:#282d33;stroke-width:2px;fill:none" d="M0 0h8.505"/>
                    <path data-name="선 219" transform="translate(35.331 17.692)" style="stroke:#282d33;stroke-width:2px;fill:none" d="M0 0h8.505"/>
                    <path data-name="선 220" transform="translate(35.331 20.398)" style="stroke:#282d33;stroke-width:2px;fill:none" d="M0 0h8.505"/>
                    <path data-name="선 221" transform="translate(35.331 23.103)" style="stroke:#282d33;stroke-width:2px;fill:none" d="M0 0h8.505"/>
                    <path data-name="선 222" transform="translate(35.331 25.808)" style="stroke:#282d33;stroke-width:2px;fill:none" d="M0 0h8.505"/>
                    <path data-name="선 223" transform="translate(48.189 14.987)" style="stroke:#282d33;stroke-width:2px;fill:none" d="M0 0h8.505"/>
                    <path data-name="선 224" transform="translate(48.189 17.692)" style="stroke:#282d33;stroke-width:2px;fill:none" d="M0 0h8.505"/>
                    <path data-name="선 225" transform="translate(48.189 20.398)" style="stroke:#282d33;stroke-width:2px;fill:none" d="M0 0h8.505"/>
                    <path data-name="선 226" transform="translate(48.189 23.103)" style="stroke:#282d33;stroke-width:2px;fill:none" d="M0 0h8.505"/>
                    <path data-name="선 227" transform="translate(48.189 25.808)" style="stroke:#282d33;stroke-width:2px;fill:none" d="M0 0h8.505"/>
                </g>
            </g>
        </g>
    </g>
</svg>
