<svg xmlns="http://www.w3.org/2000/svg" width="56" height="39.729" viewBox="0 0 56 39.729">
  <g id="그룹_1889" data-name="그룹 1889" transform="translate(-1372.67 -524.979)">
    <rect id="사각형_3422" data-name="사각형 3422" width="56" height="39.729" transform="translate(1372.67 524.979)" fill="none"/>
    <path id="패스_14507" data-name="패스 14507" d="M1422.492,541.586a2.768,2.768,0,1,1-2.768,2.768,2.768,2.768,0,0,1,2.768-2.768h0" transform="translate(0.066 0.486)" fill="#519f21"/>
    <path id="패스_14526" data-name="패스 14526" d="M1417.013,524.979H1379.6a7.021,7.021,0,0,0-6.929,7.095v25.54a7.021,7.021,0,0,0,6.929,7.095h29.1a1.419,1.419,0,0,0,0-2.838h-4.658v-5.086h4.13a1.538,1.538,0,0,0,0-3.076h-32.729v-17.43h45.729v1.754a1.386,1.386,0,1,0,2.771,0v-5.959A7.021,7.021,0,0,0,1417.013,524.979Zm-32.5,36.891v-5.086h6.508v5.086Zm16.521-5.086v5.086h-7.009v-5.086h7.009Zm-19.525,0v5.086H1379.6a4.208,4.208,0,0,1-4.157-4.257v-.829Zm0-23.581h-6.07v-1.129a4.208,4.208,0,0,1,4.157-4.257h1.912Zm9.512,0h-6.508v-5.386h6.508Zm9.512,0h-6.508v-5.386h6.508Zm9.512,0h-6.508v-5.386h6.508Zm11.122,0h-8.119v-5.386h3.961a4.208,4.208,0,0,1,4.157,4.257Z" fill="#161615"/>
    <path id="다각형_5" data-name="다각형 5" d="M1424.544,554.882a1.739,1.739,0,0,1,.531,2.2,1.534,1.534,0,0,1-.531.6l-9.424,6.1a1.33,1.33,0,0,1-1.934-.6,1.792,1.792,0,0,1-.186-.8v-12.2a1.526,1.526,0,0,1,1.418-1.614,1.29,1.29,0,0,1,.7.211Z" transform="translate(1.066 -0.021)"/>
  </g>
</svg>
