<svg xmlns="http://www.w3.org/2000/svg" width="56" height="45" viewBox="0 0 56 45">
  <g id="그룹_1888" data-name="그룹 1888" transform="translate(-1366.5 -203)">
    <path id="패스_14512" data-name="패스 14512" d="M1415,222a2.479,2.479,0,1,1-2.479,2.479h0A2.477,2.477,0,0,1,1415,222h0" transform="translate(0 0.407)" fill="#519f21"/>
    <g id="그룹_1887" data-name="그룹 1887" transform="translate(1366.5 203)">
      <path id="패스_14524" data-name="패스 14524" d="M1415.81,228.5a4.973,4.973,0,0,0-.578.042l-.14.017a2.238,2.238,0,0,0-1.425,1.941v14.833a1.97,1.97,0,0,0,1.565,1.828h.578c3.689,0,6.69-2.741,6.69-6.111v-6.439C1422.5,231.241,1419.5,228.5,1415.81,228.5Zm3.69,12.55a3.275,3.275,0,0,1-2.833,3.018V231.593a3.275,3.275,0,0,1,2.833,3.018Z" transform="translate(-1366.5 -202.161)"/>
      <path id="패스_14525" data-name="패스 14525" d="M1415.477,219.063a12.878,12.878,0,0,0-2.783-9.743c-3.446-4.194-9.567-6.321-18.194-6.321-7.9,0-13.777,2.15-17.479,6.392A17.616,17.616,0,0,0,1373,221.93v7.064a6.459,6.459,0,0,0-6.5,6.218v6.561a6.478,6.478,0,0,0,6.69,6.227h.578a1.468,1.468,0,0,0,.674-.17c.02,0,.038.006.058.006a1.514,1.514,0,0,0,1.5-1.529V221.851a1.52,1.52,0,0,0-.011-.178,14.56,14.56,0,0,1,3.275-10.249c3.107-3.561,8.233-5.367,15.236-5.367,7.665,0,13,1.745,15.86,5.186a9.715,9.715,0,0,1,2.162,7.291,1.526,1.526,0,0,0,1.214,1.766A1.5,1.5,0,0,0,1415.477,219.063ZM1369.5,241.773v-6.561a3.427,3.427,0,0,1,3.5-3.154v12.869A3.427,3.427,0,0,1,1369.5,241.773Z" transform="translate(-1366.5 -203)"/>
    </g>
  </g>
</svg>
