<svg xmlns="http://www.w3.org/2000/svg" width="46" height="45" viewBox="0 0 46 45">
    <defs>
        <clipPath id="gcp9giz2ra">
            <path data-name="사각형 3221" style="fill:none" d="M0 0h41.649v31.238H0z"/>
        </clipPath>
    </defs>
    <g data-name="그룹 1833">
        <g data-name="그룹 1101">
            <g data-name="그룹 1100" transform="translate(2.208 7.051)" style="clip-path:url(#gcp9giz2ra)">
                <path data-name="패스 13886" d="M36.807 0H4.843A4.848 4.848 0 0 0 0 4.843v20.34a4.848 4.848 0 0 0 4.843 4.843h18.4a.969.969 0 1 0 0-1.937h-18.4a2.906 2.906 0 0 1-2.906-2.906V4.843a2.906 2.906 0 0 1 2.906-2.906h31.964a2.906 2.906 0 0 1 2.906 2.906v20.34a2.906 2.906 0 0 1-2.906 2.906H33.9a.969.969 0 1 0 0 1.937h2.906a4.848 4.848 0 0 0 4.843-4.843V4.843A4.848 4.848 0 0 0 36.807 0" style="fill:#090909"/>
                <path data-name="패스 13887" d="M27.158 29.762A2.337 2.337 0 1 1 29.5 32.1a2.337 2.337 0 0 1-2.337-2.337" transform="translate(-.853 -.861)" style="fill:#4c8d32"/>
                <path data-name="패스 13888" d="M12.953 15.531a6.587 6.587 0 0 0-1.964-.723 7.733 7.733 0 0 1-1.735-.589 1.531 1.531 0 0 1-.559-.424.622.622 0 0 1-.015-.543 1.409 1.409 0 0 1 .1-.2 1.214 1.214 0 0 1 1.1-.536 2.645 2.645 0 0 1 1.265.2 3.611 3.611 0 0 1 .791.57 1.061 1.061 0 0 0 .55.311.8.8 0 0 0 .573-.106.679.679 0 0 0 .347-.447.717.717 0 0 0-.142-.647 3.046 3.046 0 0 0-1.273-.914 5.152 5.152 0 0 0-2.06-.4h-.09a3.483 3.483 0 0 0-1.6.356 3.012 3.012 0 0 0-.626.423 2.055 2.055 0 0 0-.764 1.953A1.839 1.839 0 0 0 7.9 15.287a8.907 8.907 0 0 0 1.945.582l.465.1a4.279 4.279 0 0 1 1.418.53.855.855 0 0 1 .482.749c-.008.1-.034.4-.654.7-.029.014-.059.022-.089.035v-.012a3.329 3.329 0 0 1-1.311.25h-.075a2.728 2.728 0 0 1-1.342-.421 2.106 2.106 0 0 1-.91-1.009l-.054-.09a.968.968 0 0 0-.755-.356 1.13 1.13 0 0 0-.255.03.732.732 0 0 0-.526.331.693.693 0 0 0-.039.582 2.883 2.883 0 0 0 1.324 1.607 4.574 4.574 0 0 0 2.573.741c.2 0 .4-.01.59-.025a4.776 4.776 0 0 0 2.118-.6 2.053 2.053 0 0 0 1.152-1.814 1.875 1.875 0 0 0-1.009-1.659" transform="translate(-.193 -.348)" style="fill:#090909"/>
                <path data-name="패스 13889" d="M23.459 14.754a3.945 3.945 0 0 0-1.372-2.547 3.5 3.5 0 0 0-.328-.242 4.466 4.466 0 0 0-2.475-.714 4.182 4.182 0 0 0-2.917 1.118 3.949 3.949 0 0 0-.169 5.583c.032.033.065.067.1.1a3.964 3.964 0 0 0 .77.578 4.438 4.438 0 0 0 2.134.582 4.57 4.57 0 0 0 1.209-.2 5.129 5.129 0 0 0 1.134-.453 1.219 1.219 0 0 1 .393-.168v.009a.491.491 0 0 1 .062 0 .382.382 0 0 1 .066.008 1.421 1.421 0 0 1 .3.513l.028.069a.722.722 0 0 0 .714.5.991.991 0 0 0 .178-.015.735.735 0 0 0 .658-.8.324.324 0 0 0-.008-.052zm-1.615.6c0 .08-.01.159-.018.235v-.015a2.993 2.993 0 0 1-.7 1.406 2.55 2.55 0 0 1-1.834.658 2.41 2.41 0 0 1-1.755-.658 2.215 2.215 0 0 1-.573-.861v.011a2.62 2.62 0 0 1-.149-.893 2.366 2.366 0 0 1 2.476-2.506 2.758 2.758 0 0 1 1.467.4 2.337 2.337 0 0 1 1.092 2.115v.108" transform="translate(-.475 -.353)" style="fill:#090909"/>
                <path data-name="패스 13890" d="m35.885 12.64-.007-.011v-.006a2.614 2.614 0 0 0-.5-.561 3.4 3.4 0 0 0-2.2-.672 3.026 3.026 0 0 0-1.25.267 7.651 7.651 0 0 0-.665.38 1.323 1.323 0 0 0-.392.341l-.043-.062a4.538 4.538 0 0 0-1.149-.7 3.566 3.566 0 0 0-1.25-.2 3.117 3.117 0 0 0-2.093.73 3.623 3.623 0 0 0-1.083 2.869v3.571a.837.837 0 0 0 1.668 0V15.01a2.278 2.278 0 0 1 .5-1.691 1.481 1.481 0 0 1 1.051-.34 1.508 1.508 0 0 1 1.063.334 2.377 2.377 0 0 1 .5 1.726h.007a.523.523 0 0 1-.007.1v3.434a.726.726 0 0 0 .708.744.8.8 0 0 0 .118-.007.734.734 0 0 0 .833-.617.709.709 0 0 0 .008-.12v-3.551a2.334 2.334 0 0 1 .509-1.7 1.452 1.452 0 0 1 1.034-.34 1.5 1.5 0 0 1 1.065.338 1.143 1.143 0 0 1 .22.285 2.82 2.82 0 0 1 .285 1.4v3.571a.729.729 0 0 0 .706.749.819.819 0 0 0 .119-.007.734.734 0 0 0 .833-.621.72.72 0 0 0 .008-.121V15a4.258 4.258 0 0 0-.6-2.367" transform="translate(-.793 -.358)" style="fill:#090909"/>
            </g>
        </g>
    </g>
</svg>
