<svg xmlns="http://www.w3.org/2000/svg" width="31.431" height="7.044" viewBox="0 0 31.431 7.044">
    <path data-name="Icon ionic-ios-arrow-round-forward" d="M-4.52 11.387a.479.479 0 0 0 0 .675l2.23 2.234h-29.362a.475.475 0 0 0-.473.477.475.475 0 0 0 .473.477H-2.3l-2.23 2.234a.483.483 0 0 0 0 .675.475.475 0 0 0 .671 0L-.83 15.11a.536.536 0 0 0 .1-.15.455.455 0 0 0 .037-.183.478.478 0 0 0-.136-.334L-3.852 11.4a.467.467 0 0 0-.668-.013z" transform="translate(32.125 -11.252)" style="fill:#fff"/>
</svg>
