<svg xmlns="http://www.w3.org/2000/svg" width="46" height="45" viewBox="0 0 46 45">
    <g transform="translate(6.816 3.54)" data-name="그룹 1823">
        <rect data-name="사각형 916" width="8.098" height="1.62" rx=".81" transform="translate(6.479 6.479)"/>
        <rect data-name="사각형 917" width="6.479" height="2.43" rx="1.215" transform="translate(8.098 10.528)"/>
        <rect data-name="사각형 918" width="10.528" height="1.62" rx=".81" transform="translate(8.098 29.964)"/>
        <circle data-name="타원 160" cx="2.025" cy="2.025" r="2.025" transform="translate(23.485 13.767)" style="fill:#4dac27"/>
        <path data-name="패스 13655" d="M20.537 0c.628 0 1.32.033 2.056.1 1.261.111 2.893.369 3.513.963a1.057 1.057 0 0 1 .326.763v8.747a1.057 1.057 0 0 1-1.419.994 13.236 13.236 0 0 0-2.724-.615 14.091 14.091 0 0 0-1.467-.069c-.932 0-1.685.069-1.693.07A1.058 1.058 0 0 1 17.974 9.9V1.152a1.057 1.057 0 0 1 .853-1.038A9.654 9.654 0 0 1 20.537 0zm3.78 2.514a10.551 10.551 0 0 0-1.91-.31c-.675-.06-1.3-.09-1.87-.09-.166 0-.315 0-.449.007V8.78c.225-.007.473-.012.734-.012a16.2 16.2 0 0 1 1.69.081 14.266 14.266 0 0 1 1.8.318z"/>
        <path data-name="패스 13656" d="M30.213 0a9.658 9.658 0 0 1 1.71.114 1.057 1.057 0 0 1 .853 1.038V9.9a1.057 1.057 0 0 1-1.158 1.053c-.007 0-.76-.07-1.692-.07a14.093 14.093 0 0 0-1.467.069 13.235 13.235 0 0 0-2.725.616 1.058 1.058 0 0 1-1.416-.995V1.825a1.057 1.057 0 0 1 .326-.764C24.986.734 25.873.3 28.157.098A23.595 23.595 0 0 1 30.213 0zm.449 2.122c-.134 0-.283-.007-.449-.007-.566 0-1.195.03-1.87.09a10.551 10.551 0 0 0-1.91.31v6.652a14.266 14.266 0 0 1 1.8-.318 16.2 16.2 0 0 1 1.69-.081c.262 0 .509 0 .734.012z"/>
        <path data-name="패스 13673" d="M21.146 38.063H5.286A5.292 5.292 0 0 1 0 32.776V5.286A5.292 5.292 0 0 1 5.286 0h8.458a1.058 1.058 0 1 1 0 2.115H5.286a3.175 3.175 0 0 0-3.171 3.171v27.49a3.175 3.175 0 0 0 3.172 3.172h15.859a3.175 3.175 0 0 0 3.172-3.172V22.2a1.058 1.058 0 0 1 2.115 0v10.576a5.292 5.292 0 0 1-5.287 5.287z"/>
    </g>
</svg>
