<svg data-name="그룹 1831" xmlns="http://www.w3.org/2000/svg" width="46.006" height="45" viewBox="0 0 46.006 45">
    <defs>
        <clipPath id="1iqss3oina">
            <path data-name="사각형 3416" style="fill:none" d="M0 0h45.298v31.381H0z"/>
        </clipPath>
    </defs>
    <g data-name="그룹 1825">
        <g data-name="그룹 1824" style="clip-path:url(#1iqss3oina)" transform="translate(.708 7.019)">
            <path data-name="패스 14507" d="M36.242 12A2.242 2.242 0 1 1 34 14.242 2.241 2.241 0 0 1 36.242 12" transform="translate(4.106 1.449)" style="fill:#519f21"/>
            <path data-name="패스 14508" d="M5.6 0h30.265a5.61 5.61 0 0 1 5.6 5.6v4.707a1.121 1.121 0 1 1-2.242 0V5.6a3.362 3.362 0 0 0-3.362-3.362H5.6A3.362 3.362 0 0 0 2.242 5.6v20.178A3.362 3.362 0 0 0 5.6 29.14h23.54a1.121 1.121 0 1 1 0 2.242H5.6a5.61 5.61 0 0 1-5.6-5.6V5.6A5.61 5.61 0 0 1 5.6 0" style="fill:#040405"/>
            <path data-name="사각형 3415" transform="translate(0 6.479)" style="fill:#040405" d="M0 0h38.873v2.43H0z"/>
            <path data-name="패스 14509" d="M6.121 11h7.845a1.121 1.121 0 0 1 0 2.242H6.121a1.121 1.121 0 1 1 0-2.242" transform="translate(.604 1.328)" style="fill:#040405"/>
            <path data-name="패스 14510" d="M17.121 11h2.242a1.121 1.121 0 0 1 0 2.242h-2.242a1.121 1.121 0 0 1 0-2.242" transform="translate(1.932 1.328)" style="fill:#040405"/>
            <path data-name="패스 14511" d="M41.107 19.833h-.477l.1-.257a1.07 1.07 0 0 0-.017-.891 1.154 1.154 0 0 0-.723-.572 1.468 1.468 0 0 0-.975-.034.962.962 0 0 0-.606.622l-.371 1.131h-2.8l-.325-1.03a1.258 1.258 0 0 0-1.362-.79 1.258 1.258 0 0 0-1.362.79l-.325 1.03h-2.8l-.351-1.064a.99.99 0 0 0-.63-.68 1.659 1.659 0 0 0-1 .025 1.128 1.128 0 0 0-.7.547 1.023 1.023 0 0 0-.025.882l.114.3a1.114 1.114 0 0 0 .068 2.227h.771l1.753 4.647a1.177 1.177 0 0 0 .5.581 2 2 0 0 0 1.782 0 1.182 1.182 0 0 0 .5-.581l1.489-4.647h.416l1.491 4.647a1.177 1.177 0 0 0 .5.581 2 2 0 0 0 1.782 0 1.175 1.175 0 0 0 .5-.581l1.75-4.647h1.32a1.121 1.121 0 0 0 0-2.242M30.49 24.183l-.69-2.108h1.358zm6.119 0-.665-2.108H37.3z" transform="translate(3.069 2.175)" style="fill:#161615"/>
        </g>
    </g>
</svg>
