<svg xmlns="http://www.w3.org/2000/svg" xmlns:xlink="http://www.w3.org/1999/xlink" width="28.684" height="40.849" viewBox="0 0 28.684 40.849">
  <defs>
    <clipPath id="clip-path">
      <rect id="사각형_3210" data-name="사각형 3210" width="28.684" height="40.849" fill="none"/>
    </clipPath>
    <clipPath id="clip-path-2">
      <rect id="사각형_3209" data-name="사각형 3209" width="12.116" height="31.104" fill="none"/>
    </clipPath>
  </defs>
  <g id="그룹_1076" data-name="그룹 1076" clip-path="url(#clip-path)">
    <path id="패스_13856" data-name="패스 13856" d="M9.219,19.783h6.34a1.057,1.057,0,0,1,0,2.113H9.219a1.057,1.057,0,0,1,0-2.113" transform="translate(-1.823 -10.632)" fill="#040504"/>
    <path id="패스_13857" data-name="패스 13857" d="M11.94,25.225h4.227a1.057,1.057,0,0,1,0,2.113H11.94a1.057,1.057,0,0,1,0-2.113" transform="translate(-2.431 -11.847)" fill="#040504"/>
    <path id="패스_13858" data-name="패스 13858" d="M11.94,49.713h8.453a1.057,1.057,0,0,1,0,2.113H11.94a1.057,1.057,0,0,1,0-2.113" transform="translate(-2.431 -17.317)" fill="#040504"/>
    <path id="패스_13859" data-name="패스 13859" d="M32.044,29.306a2.113,2.113,0,1,1-2.113,2.113,2.113,2.113,0,0,1,2.113-2.113" transform="translate(-6.685 -12.759)" fill="#4f9d34"/>
    <path id="패스_13860" data-name="패스 13860" d="M21.133,49.658H5.284A5.29,5.29,0,0,1,0,44.375V16.9A5.29,5.29,0,0,1,5.284,11.62h8.453a1.057,1.057,0,0,1,0,2.113H5.284A3.17,3.17,0,0,0,2.113,16.9V44.375a3.17,3.17,0,0,0,3.17,3.169H21.133A3.169,3.169,0,0,0,24.3,44.375V33.809a1.057,1.057,0,1,1,2.113,0V44.375a5.289,5.289,0,0,1-5.283,5.283" transform="translate(0 -8.809)" fill="#040504"/>
    <g id="그룹_1075" data-name="그룹 1075" transform="translate(16.568 -6.213)" style="isolation: isolate">
      <g id="그룹_1074" data-name="그룹 1074" transform="translate(0 0)">
        <g id="그룹_1073" data-name="그룹 1073" clip-path="url(#clip-path-2)">
          <path id="패스_14579" data-name="패스 14579" d="M9.658-3.311q0,1-1.763,2.4A5.779,5.779,0,0,1,4.258.5,3.134,3.134,0,0,1,1.831-.43,3.677,3.677,0,0,1,.977-3.018,8.731,8.731,0,0,1,2.861-8.33q1.885-2.52,4.121-2.52a1.593,1.593,0,0,1,1.2.479,1.6,1.6,0,0,1,.464,1.152A3.966,3.966,0,0,1,7.168-6.338,18.9,18.9,0,0,1,3.223-3.633a.78.78,0,0,0-.508.684,1.8,1.8,0,0,0,.469,1.3,1.836,1.836,0,0,0,1.387.488q2.1,0,4.287-2.324.322-.322.488-.322Q9.658-3.809,9.658-3.311ZM2.871-4.834Q7.012-7.295,7.012-8.789q0-.586-.527-.586A3.007,3.007,0,0,0,4.458-8.057,7.611,7.611,0,0,0,2.871-4.834Z" transform="translate(0 18.832)" fill="#040504"/>
        </g>
      </g>
    </g>
  </g>
</svg>
